<?xml version="1.0" standalone="no"?>
<svg version="1.1" id="Layer_1_15_" xmlns="http://www.w3.org/2000/svg" xmlns:xlink="http://www.w3.org/1999/xlink" x="0px" y="0px" viewBox="0 0 595.276 595.276" enable-background="new 0 0 595.276 595.276" xml:space="preserve">
<path id="color_x5F_8" fill-rule="evenodd" clip-rule="evenodd" fill="#FFFFFF" d="M323.166,401.544h41.35v15.243h-7.298
	c-0.025-0.004-0.05-0.007-0.076-0.008c-0.033,0-0.066,0.003-0.099,0.008h-32.461h-1.416V401.544z"></path>
<path id="color_x5F_7" fill-rule="evenodd" clip-rule="evenodd" fill="#E96257" d="M235.912,346.156h86.256v45.105h-89.595
	L235.912,346.156z"></path>
<path id="color_x5F_6" fill-rule="evenodd" clip-rule="evenodd" fill="#1ACEBD" d="M131.152,503.088h-11.643v-5.995
	c0.01-0.056,0.01-0.114,0-0.17v-17.692l20.284-20.282c0.012,0.013,0.023,0.027,0.035,0.04c2.466,2.444,6.006,5.96,8.897,8.826
	c3.108,3.083,4.856,7.275,4.856,11.654v1.191L131.152,503.088L131.152,503.088z M118.511,503.088h-34.07v-23.618
	c0-4.312,1.7-8.439,4.773-11.562l29.297,29.297V503.088z M510.116,503.088h-34.073v-5.884l29.299-29.297
	c3.053,3.074,4.774,7.225,4.774,11.562L510.116,503.088L510.116,503.088z M454.763,458.949l20.281,20.282v17.696
	c-0.009,0.054-0.009,0.108,0,0.162v5.999h-11.64l-22.43-22.428v-1.191c0-4.379,1.746-8.571,4.853-11.654
	c2.891-2.867,6.433-6.382,8.899-8.826C454.74,458.976,454.75,458.962,454.763,458.949L454.763,458.949L454.763,458.949
	L454.763,458.949L454.763,458.949z M153.582,503.088h-21.018l21.018-21.016V503.088z M461.992,503.088h-21.018v-21.016
	L461.992,503.088z M496.363,458.989c2.293,2.273,5.51,5.467,8.275,8.21l-28.594,28.592v-16.671c0.01-0.056,0.01-0.114,0-0.17
	v-27.049l17.122-17.12c0.008,0.222,0.033,0.438,0.033,0.661v15.956c0,2.851,1.139,5.582,3.162,7.591H496.363z M101.389,434.779
	l17.121,17.122v27.053c-0.008,0.053-0.008,0.108,0,0.162v16.675l-28.592-28.592c2.766-2.743,5.981-5.937,8.276-8.211
	c2.024-2.008,3.162-4.739,3.162-7.59v-15.956C101.356,435.219,101.381,435.001,101.389,434.779L101.389,434.779L101.389,434.779z
	 M475.044,417.812v33.812c-0.009,0.054-0.009,0.109,0,0.163v26.033l-19.607-19.607c1.579-1.909,2.452-4.316,2.452-6.814v-15.956
	C457.889,425.886,465.471,418.13,475.044,417.812L475.044,417.812z M119.509,417.812c9.523,0.266,17.155,8.042,17.155,17.631v15.956
	c0,2.498,0.875,4.905,2.454,6.814l-19.609,19.607v-26.03c0.01-0.056,0.01-0.113,0-0.169V417.812z M118.511,417.812v32.677
	l-17.035-17.036C102.442,424.827,109.609,418.104,118.511,417.812z M476.043,417.812c8.854,0.248,16.067,6.988,17.036,15.643
	l-17.036,17.034V417.812L476.043,417.812z"></path>
<path id="color_x5F_5" fill-rule="evenodd" clip-rule="evenodd" fill="#FFD2BB" d="M319.961,469.479h-29.256v-51.694h33.877
	c4.067,0,7.922,1.813,10.516,4.946c2.595,3.132,3.659,7.259,2.9,11.255c-1.507,7.949-3.268,17.24-4.621,24.379
	C332.156,464.816,326.526,469.479,319.961,469.479L319.961,469.479z M349.244,287.988h-4.272c-2.965,0-5.803-1.218-7.846-3.367
	c-1.771-1.862-2.81-4.283-2.959-6.824c0-0.027-0.003-0.055-0.008-0.082c-0.018-0.365-0.018-0.731,0-1.1
	c0.272-5.366,0.591-11.656,0.855-16.879c0.189-3.731,2.252-6.932,5.246-8.729c0.041-0.017,0.08-0.039,0.115-0.066
	c1.604-0.938,3.464-1.483,5.45-1.483l0,0h35.918c5.561,0,10.211,4.202,10.77,9.736c0.52,5.149,1.158,11.443,1.707,16.879
	c0.308,3.045-0.688,6.079-2.741,8.349s-4.971,3.566-8.031,3.566h-34.029c-0.028-0.005-0.057-0.007-0.086-0.008
	C349.302,287.98,349.273,287.983,349.244,287.988L349.244,287.988z M289.987,200.292l53.069,7.719l-2.181,26.611
	c0,0.006-0.001,0.012-0.002,0.017l-1.279,15.606c-3.187,1.984-5.376,5.436-5.579,9.443c-0.264,5.223-0.58,11.512-0.852,16.878
	c-0.018,0.349-0.013,0.695,0,1.042c-3.549,3.686-8.585,5.836-14.124,5.384l-54.477-4.468l2.466-30.077
	c0.022-0.274-0.184-0.516-0.456-0.538c-7.676-0.629-13.388-7.362-12.759-15.039c0.629-7.676,7.362-13.388,15.039-12.759
	c5.428,0.445,9.873,3.947,11.789,8.674c0.076,0.188,0.26,0.311,0.462,0.311c0.109,0,0.215-0.036,0.302-0.102
	c0.258-0.196,0.506-0.397,0.751-0.604c3.805-3.227,6.172-7.834,6.578-12.806L289.987,200.292L289.987,200.292z M316.19,257.045
	c-4.709,0.093-8.69,3.743-9.082,8.539c-0.267,3.256-0.507,6.174-0.507,6.174c-0.003,0.02-0.004,0.039-0.004,0.059
	c0,0.274,0.226,0.499,0.499,0.499c0.266,0,0.487-0.211,0.499-0.476c0,0,0.241-2.917,0.507-6.174c0.376-4.576,4.38-7.971,8.956-7.597
	l4.248,0.35c0.02,0.002,0.04,0.003,0.059,0.003c0.275,0,0.499-0.225,0.499-0.499c0-0.265-0.211-0.486-0.476-0.498l-4.248-0.35
	C316.82,257.048,316.504,257.039,316.19,257.045L316.19,257.045L316.19,257.045z"></path>
<path id="color_x5F_4" fill-rule="evenodd" clip-rule="evenodd" fill="#00CEC9" d="M329.843,417.786h26.779
	c-1.134,39.022-0.864,83.857-0.855,85.302H200.532v-32.643c0.441,0.02,0.885,0.033,1.332,0.033h118.096
	c7.038,0,13.088-5.011,14.399-11.927c1.353-7.138,3.114-16.429,4.621-24.379c0.812-4.288-0.33-8.716-3.113-12.077
	C334.247,420.139,332.159,418.68,329.843,417.786L329.843,417.786L329.843,417.786L329.843,417.786L329.843,417.786z
	 M238.94,299.004h15.504v0.995c0,2.384,0.947,4.672,2.634,6.359c1.686,1.687,3.975,2.634,6.359,2.634h50.736
	c2.385,0,4.671-0.949,6.357-2.636c0.667-0.667,1.214-1.431,1.637-2.255v41.056h-86.181l0.512-6.93
	c0.002-0.014,0.002-0.029,0.002-0.043c0-0.274-0.226-0.499-0.499-0.499c-0.006,0-0.013,0-0.019,0
	c-0.255,0.011-0.462,0.214-0.478,0.468l-0.546,7.391c-0.012,0.052-0.016,0.104-0.011,0.157l-3.403,45.944
	c-0.012,0.053-0.016,0.107-0.011,0.162l-1.85,24.98h-11.892c-0.003-0.001-0.005-0.001-0.007-0.001c-0.275,0-0.499,0.226-0.499,0.5
	c0,0.274,0.225,0.499,0.499,0.499c0.002,0,0.004,0,0.007,0h12.19c0.104,0.035,0.218,0.035,0.322,0h59.403v51.693h-87.841
	c-15.367,0-26.858-12.406-25.719-27.774l1.806-24.38c0.002-0.017,0.002-0.034,0.002-0.051l4.891-66.041
	C184.98,322.399,210.109,299.004,238.94,299.004L238.94,299.004L238.94,299.004z M322.167,416.787h-91.485l1.816-24.526h89.67
	V416.787z M394.42,268.139c0.878,1.829,18.819,39.181,36.939,76.905c5.577,11.61,3.608,25.432-4.99,35.023
	c-8.598,9.589-22.124,13.049-34.272,8.768c-15.131-5.332-26.301-9.269-26.583-9.368v-49.522l8.344,20.692
	c0.076,0.189,0.26,0.313,0.463,0.313c0.274,0,0.499-0.226,0.499-0.499c0-0.065-0.013-0.128-0.037-0.188l-9.289-23.038l-0.016-0.039
	l-0.002-0.008c-0.003-0.006-0.006-0.011-0.008-0.016l-0.01-0.021l-4.468-11.079c-0.001-0.002-0.001-0.004-0.002-0.006l-0.016-0.041
	c-0.002-0.006-0.005-0.011-0.008-0.016l-10.895-27.012h33.374c3.342,0,6.531-1.416,8.772-3.895c2.241-2.48,3.329-5.792,2.992-9.118
	C394.955,273.45,394.691,270.831,394.42,268.139L394.42,268.139L394.42,268.139z"></path>
<path id="color_x5F_3" fill-rule="evenodd" clip-rule="evenodd" fill="#E84393" d="M489.295,322.665
	c2.105,0,3.801,1.696,3.801,3.802c0,2.105-1.696,3.801-3.801,3.801c-2.106,0-3.804-1.696-3.804-3.801
	C485.491,324.361,487.189,322.665,489.295,322.665z M512.46,320.037c2.106,0,3.804,1.696,3.804,3.802
	c0,2.105-1.698,3.802-3.804,3.802c-2.105,0-3.801-1.697-3.801-3.802C508.659,321.733,510.355,320.037,512.46,320.037z
	 M493.596,302.427c3.756,0,6.791,3.034,6.791,6.791c0,3.756-3.034,6.791-6.791,6.791c-3.755,0-6.79-3.034-6.79-6.791
	C486.806,305.462,489.841,302.427,493.596,302.427z M119.071,283.236c2.105,0,3.802,1.698,3.802,3.803
	c0,2.106-1.697,3.802-3.802,3.802c-2.106,0-3.802-1.696-3.802-3.802C115.269,284.934,116.965,283.236,119.071,283.236z
	 M142.236,280.609c2.106,0,3.804,1.698,3.804,3.803c0,2.106-1.698,3.802-3.804,3.802c-2.105,0-3.801-1.696-3.801-3.802
	C138.435,282.307,140.131,280.609,142.236,280.609z M123.373,263.001c3.755,0,6.79,3.034,6.79,6.791c0,3.756-3.034,6.791-6.79,6.791
	c-3.756,0-6.791-3.034-6.791-6.791C116.582,266.035,119.616,263.001,123.373,263.001z M304.842,154.694
	c18.231-0.165,35.637,7.772,47.471,21.72c8.749,10.316,17.019,20.062,17.166,20.236c-1.025,11.81-7.171,22.578-16.851,29.429
	c-3.901,2.764-7.671,5.431-10.671,7.556l2.132-26.01c0.021-0.262-0.166-0.497-0.425-0.535l-54.06-7.863
	c-0.033-0.004-0.066-0.006-0.099-0.004c-0.249,0.014-0.45,0.211-0.47,0.458l-1.299,15.821c-0.385,4.708-2.623,9.069-6.226,12.124
	c-0.09,0.076-0.18,0.145-0.27,0.219c-2.176-4.759-6.731-8.272-12.307-8.73h-0.002c-5.602-0.458-10.741,2.25-13.659,6.623
	c-0.288-0.299-0.577-0.595-0.848-0.915c-3.395-4.002-5.063-9.187-4.633-14.418c0.482-5.892,1.01-12.306,1.486-18.119
	c0.404-4.907,2.739-9.454,6.494-12.639c3.753-3.186,8.62-4.749,13.527-4.347c0.273,0.022,0.516-0.184,0.538-0.456l0.18-2.194
	c0.787-9.586,8.605-17.068,18.216-17.43c4.029-0.153,8.437-0.319,12.844-0.484C303.665,154.713,304.254,154.7,304.842,154.694
	L304.842,154.694L304.842,154.694z M426.238,141.144c2.105,0,3.802,1.696,3.802,3.802c0,2.105-1.697,3.803-3.802,3.803
	c-2.105,0-3.804-1.698-3.804-3.803C422.434,142.84,424.133,141.144,426.238,141.144z M449.403,138.516
	c2.106,0,3.804,1.696,3.804,3.802c0,2.105-1.698,3.801-3.804,3.801c-2.105,0-3.801-1.696-3.801-3.801
	C445.602,140.212,447.298,138.516,449.403,138.516z M430.54,120.909c3.756,0,6.79,3.034,6.79,6.791c0,3.756-3.033,6.791-6.79,6.791
	c-3.756,0-6.791-3.034-6.791-6.791S426.784,120.909,430.54,120.909z"></path>
<path id="color_x5F_2" fill-rule="evenodd" clip-rule="evenodd" fill="#FBC02D" d="M364.516,400.546h-41.35v-8.704
	c0.009-0.054,0.009-0.108,0-0.162v-45.942c0.009-0.054,0.009-0.109,0-0.162v-46.571h7.635c13.014,0,23.845,6.985,29.254,17.403
	l4.462,11.061L364.516,400.546L364.516,400.546z M499.07,295.276c0.046,0.007,0.093,0.007,0.139,0
	c8.339,0.026,15.61,4.538,19.542,11.248c0.023,0.085,0.068,0.163,0.131,0.225c1.871,3.279,2.95,7.067,2.974,11.11
	c-0.026,0.091-0.026,0.188,0,0.279c-0.024,4.052-1.11,7.85-2.99,11.135c-0.045,0.051-0.08,0.111-0.101,0.176
	c-1.98,3.387-4.807,6.214-8.195,8.189c-0.049,0.019-0.094,0.044-0.135,0.077c-3.308,1.899-7.136,2.992-11.222,3.005
	c-0.028-0.004-0.055-0.006-0.082-0.006c-0.022,0.001-0.044,0.003-0.065,0.006c-4.082-0.012-7.907-1.104-11.213-2.998
	c-0.046-0.039-0.099-0.069-0.156-0.089c-3.388-1.979-6.215-4.805-8.193-8.194c0,0,0-0.001,0-0.002
	c-0.02-0.054-0.05-0.105-0.088-0.15c-1.897-3.307-2.988-7.135-3-11.22c0.007-0.046,0.007-0.093,0-0.139
	c0.013-4.12,1.124-7.978,3.051-11.304c0.001-0.002,0.001-0.003,0.002-0.004c1.973-3.404,4.801-6.246,8.195-8.235
	c0.087-0.022,0.166-0.068,0.229-0.132C491.19,296.369,495.003,295.288,499.07,295.276L499.07,295.276L499.07,295.276z
	 M489.295,321.666c-2.646,0-4.803,2.155-4.803,4.801c0,2.646,2.157,4.8,4.803,4.8s4.8-2.154,4.8-4.8
	C494.095,323.821,491.941,321.666,489.295,321.666z M512.46,319.038c-2.646,0-4.8,2.155-4.8,4.801c0,2.646,2.154,4.801,4.8,4.801
	c2.646,0,4.803-2.155,4.803-4.801C517.263,321.194,515.106,319.038,512.46,319.038z M493.596,301.428
	c-4.296,0-7.789,3.494-7.789,7.79c0,4.297,3.493,7.79,7.789,7.79c4.297,0,7.79-3.493,7.79-7.79
	C501.386,304.922,497.893,301.428,493.596,301.428z M314.173,307.993h-50.736c-2.12,0-4.154-0.844-5.653-2.343
	c-1.5-1.499-2.341-3.532-2.341-5.651v-1.414c0.009-0.054,0.009-0.109,0-0.162v-10.946c0-2.121,0.842-4.155,2.341-5.653
	c1.499-1.5,3.533-2.341,5.653-2.341l0.299-0.096c0.072,0.051,0.157,0.082,0.246,0.09l54.974,4.511
	c0.816,0.066,1.621,0.074,2.415,0.037c0.512,1.069,0.796,2.244,0.796,3.453v10.948c-0.009,0.053-0.009,0.108,0,0.162v1.412
	c0,2.119-0.844,4.152-2.343,5.651c0,0.001,0,0.001,0,0.002C318.326,307.151,316.294,307.993,314.173,307.993z M128.846,255.848
	c0.046,0.006,0.093,0.006,0.139,0c4.118,0.012,7.973,1.122,11.298,3.047c0.004,0.002,0.007,0.004,0.01,0.006
	c3.404,1.973,6.246,4.801,8.234,8.195c0.023,0.086,0.069,0.165,0.133,0.228c1.883,3.3,2.964,7.115,2.975,11.185
	c-0.005,0.04-0.005,0.08,0,0.119c-0.011,4.086-1.102,7.916-2.996,11.225c-0.041,0.047-0.073,0.101-0.094,0.16
	c-1.982,3.394-4.816,6.223-8.213,8.201c-0.041,0.017-0.08,0.039-0.115,0.066c-3.313,1.904-7.149,3-11.244,3.01
	c-0.022-0.003-0.045-0.004-0.068-0.004c-0.017,0-0.034,0.002-0.051,0.004c-4.086-0.011-7.914-1.103-11.222-2.998
	c-0.047-0.04-0.102-0.071-0.16-0.092c-3.387-1.977-6.214-4.802-8.192-8.189c-0.019-0.055-0.048-0.106-0.085-0.15
	c-1.898-3.308-2.99-7.136-3.002-11.223c0.006-0.046,0.006-0.092,0-0.138c0.012-4.121,1.124-7.978,3.05-11.305
	c0.002-0.003,0.003-0.006,0.004-0.01c1.997-3.443,4.87-6.309,8.317-8.3c0-0.001,0.001-0.002,0.002-0.002
	C120.887,256.964,124.736,255.859,128.846,255.848L128.846,255.848L128.846,255.848z M119.071,282.238
	c-2.646,0-4.801,2.156-4.801,4.802c0,2.646,2.155,4.801,4.801,4.801s4.801-2.155,4.801-4.801
	C123.872,284.394,121.717,282.238,119.071,282.238z M142.236,279.61c-2.646,0-4.8,2.156-4.8,4.802c0,2.646,2.154,4.801,4.8,4.801
	s4.803-2.155,4.803-4.801C147.039,281.766,144.882,279.61,142.236,279.61z M123.373,262.002c-4.297,0-7.79,3.493-7.79,7.79
	c0,4.296,3.493,7.79,7.79,7.79c4.296,0,7.789-3.494,7.789-7.79C131.161,265.495,127.669,262.002,123.373,262.002z M436.014,113.755
	c0.046,0.006,0.093,0.006,0.139,0c4.118,0.013,7.973,1.123,11.298,3.047c0.004,0.002,0.007,0.004,0.01,0.006
	c3.431,1.989,6.29,4.846,8.281,8.275c0.008,0.015,0.017,0.029,0.026,0.043c1.918,3.321,3.022,7.171,3.035,11.281
	c-0.007,0.046-0.007,0.093,0,0.139c-0.012,4.086-1.106,7.914-3.002,11.222c-0.034,0.042-0.061,0.09-0.08,0.141
	c-1.98,3.395-4.812,6.227-8.207,8.206c-0.049,0.019-0.094,0.044-0.135,0.077c-3.307,1.898-7.135,2.992-11.222,3.005
	c-0.028-0.004-0.056-0.006-0.084-0.006c-0.022,0.001-0.043,0.003-0.064,0.006c-4.082-0.013-7.906-1.104-11.211-2.998
	c-0.046-0.039-0.099-0.069-0.156-0.089c-3.389-1.978-6.215-4.805-8.193-8.194c-0.021-0.057-0.051-0.11-0.09-0.156
	c-1.895-3.306-2.986-7.131-2.998-11.214c0.006-0.046,0.006-0.093,0-0.139c0.025-8.336,4.533-15.607,11.24-19.54
	c0.093-0.023,0.178-0.072,0.244-0.141C428.14,114.848,431.95,113.767,436.014,113.755L436.014,113.755L436.014,113.755z
	 M426.239,140.145c-2.646,0-4.803,2.155-4.803,4.801c0,2.645,2.157,4.802,4.803,4.802c2.646,0,4.801-2.157,4.801-4.802
	C431.04,142.301,428.884,140.145,426.239,140.145z M449.404,137.518c-2.646,0-4.8,2.155-4.8,4.801c0,2.646,2.154,4.8,4.8,4.8
	s4.803-2.154,4.803-4.8C454.207,139.673,452.049,137.518,449.404,137.518z M430.54,119.91c-4.297,0-7.79,3.494-7.79,7.79
	c0,4.296,3.493,7.79,7.79,7.79c4.296,0,7.789-3.494,7.789-7.79S434.836,119.91,430.54,119.91z"></path>
<path id="color_x5F_1" fill="#0984E3" d="M300.615,89.958c-0.548,0.007-0.993,0.464-0.986,1.012v5.722c0,0.005,0,0.009,0,0.014
	c0,0.548,0.451,0.999,0.999,0.999c0.548,0,0.999-0.45,0.999-0.999c0-0.005,0-0.009,0-0.014V90.97c0-0.004,0-0.009,0-0.013
	c0-0.548-0.45-0.999-0.999-0.999C300.624,89.958,300.619,89.958,300.615,89.958z M290.812,94.023
	c-0.547,0.001-0.997,0.451-0.997,0.999c0,0.27,0.109,0.528,0.303,0.716l4.044,4.046c0.188,0.196,0.448,0.307,0.72,0.307
	c0.548,0,0.999-0.45,0.999-0.999c0-0.272-0.111-0.532-0.307-0.72l-4.044-4.046C291.342,94.132,291.083,94.022,290.812,94.023
	L290.812,94.023z M310.418,94.023c-0.26,0.008-0.505,0.116-0.686,0.303l-4.046,4.046c-0.197,0.188-0.308,0.448-0.308,0.72
	c0,0.548,0.451,0.999,0.999,0.999c0.273,0,0.532-0.111,0.721-0.307l4.046-4.046c0.193-0.188,0.303-0.446,0.303-0.716
	c0-0.548-0.451-0.999-0.999-0.999C310.438,94.023,310.428,94.023,310.418,94.023L310.418,94.023z M83.011,95.64
	c-0.004,0-0.009,0-0.014,0c-0.547,0-0.999,0.45-0.999,0.999s0.451,0.999,0.999,0.999c0.005,0,0.01,0,0.014,0H99.32
	c1.264,0,2.472,0.453,3.337,1.228c0.866,0.772,1.325,1.787,1.325,2.833v6.833c0,1.046-0.458,2.06-1.325,2.833
	c-0.865,0.774-2.072,1.23-3.337,1.23H88.672c-1.737,0-3.41,0.61-4.667,1.734c-1.259,1.124-1.993,2.685-1.993,4.323v6.834
	c0,1.638,0.733,3.199,1.993,4.323c1.257,1.125,2.93,1.734,4.667,1.734h16.309c0.004,0.001,0.009,0.001,0.014,0.001
	c0.547,0,0.999-0.451,0.999-1c0-0.547-0.451-0.999-0.999-0.999c-0.005,0-0.01,0-0.014,0H88.672c-1.264,0-2.472-0.453-3.337-1.227
	c-0.867-0.774-1.325-1.786-1.325-2.833v-6.834c0-1.047,0.458-2.059,1.325-2.833c0.865-0.773,2.072-1.227,3.337-1.227H99.32
	c1.737,0,3.41-0.612,4.667-1.737c1.259-1.124,1.993-2.685,1.993-4.323v-6.833c0-1.637-0.733-3.198-1.993-4.322
	c-1.257-1.124-2.93-1.736-4.667-1.736H83.011z M119.865,95.64c-1.738,0-3.411,0.611-4.668,1.734
	c-1.258,1.124-1.992,2.686-1.992,4.324v23.785c0,1.638,0.732,3.199,1.99,4.323c1.258,1.125,2.932,1.734,4.67,1.734h10.645
	c1.738,0,3.412-0.609,4.67-1.734c1.257-1.124,1.992-2.685,1.992-4.323v-23.785c0-1.637-0.734-3.198-1.992-4.322
	s-2.931-1.736-4.67-1.736C130.51,95.64,119.865,95.64,119.865,95.64z M145.394,95.64c-0.004,0-0.009,0-0.014,0
	c-0.547,0-0.999,0.45-0.999,0.999s0.451,0.999,0.999,0.999c0.005,0,0.01,0,0.014,0h5.323c2.645,0,4.663,1.871,4.663,4.06v28.843
	c0,0.005,0,0.01,0,0.015c0,0.547,0.451,0.999,0.999,0.999c0.548,0,1-0.451,1-0.999c0-0.005,0-0.01-0.001-0.015v-28.843
	c0-3.398-3.052-6.058-6.661-6.058H145.394z M173.027,95.64c-1.738,0-3.412,0.611-4.669,1.734c-1.258,1.124-1.992,2.686-1.992,4.324
	v6.833c0,1.638,0.733,3.199,1.992,4.323c1.257,1.124,2.931,1.737,4.669,1.737h15.31v10.893c0,1.046-0.46,2.059-1.327,2.833
	c-0.865,0.773-2.072,1.227-3.337,1.227h-16.308c-0.005,0-0.01,0-0.015,0c-0.547,0-0.999,0.451-0.999,0.999c0,0.548,0.451,1,0.999,1
	c0.005,0,0.01,0,0.015-0.001h16.308c1.738,0,3.412-0.609,4.669-1.734c1.257-1.124,1.993-2.684,1.993-4.323v-11.892v-11.894
	c0-1.637-0.735-3.198-1.993-4.322c-1.257-1.124-2.931-1.736-4.669-1.736C183.673,95.64,173.027,95.64,173.027,95.64z
	 M119.865,97.638h10.645c1.265,0,2.472,0.453,3.338,1.228c0.001,0,0.001,0,0.002,0c0.865,0.772,1.324,1.787,1.324,2.833v23.785
	c0,1.047-0.46,2.059-1.326,2.833c-0.866,0.773-2.072,1.227-3.338,1.227h-10.645c-1.266,0-2.472-0.453-3.338-1.227
	c-0.866-0.774-1.324-1.786-1.324-2.833v-23.785c0-1.046,0.457-2.061,1.322-2.833c0.001,0,0.002,0,0.002,0
	C117.393,98.091,118.6,97.638,119.865,97.638L119.865,97.638z M173.027,97.638h10.646c1.265,0,2.472,0.453,3.337,1.228
	c0.866,0.772,1.327,1.787,1.327,2.833v10.895h-15.31c-1.265,0-2.472-0.454-3.339-1.23c-0.866-0.773-1.324-1.787-1.324-2.833v-6.833
	c0-1.046,0.458-2.061,1.324-2.833C170.555,98.09,171.761,97.638,173.027,97.638z M436.067,100.356
	c-0.049,0.001-0.097,0.005-0.145,0.014h-2.889c-0.005-0.001-0.01-0.001-0.014-0.001c-0.548,0-1,0.451-1,1
	c0,0.547,0.451,0.999,1,0.999c0.004,0,0.009,0,0.014,0h2.05v9.913c-3.682,0.151-7.152,1.125-10.234,2.743l-4.958-8.585l1.775-1.027
	c0.316-0.176,0.512-0.51,0.512-0.872c0-0.536-0.431-0.981-0.967-0.999c-0.192-0.006-0.381,0.043-0.544,0.141l-2.499,1.443
	c-0.101,0.039-0.196,0.094-0.279,0.162l-2.501,1.444c-0.31,0.178-0.5,0.508-0.5,0.865c0,0.548,0.451,0.999,1,0.999
	c0.175,0,0.348-0.046,0.499-0.134l1.773-1.024l4.959,8.589c-3.013,1.916-5.573,4.477-7.489,7.489l-8.59-4.958l1.025-1.774
	c0.093-0.155,0.142-0.333,0.142-0.512c0-0.545-0.446-0.995-0.991-1c-0.366-0.003-0.704,0.195-0.882,0.513l-1.439,2.495
	c-0.072,0.086-0.129,0.184-0.168,0.289l-1.44,2.495c-0.087,0.152-0.134,0.325-0.134,0.499c0,0.548,0.451,1,1,1
	c0.357,0,0.687-0.191,0.865-0.5l1.024-1.775l8.586,4.959c-1.618,3.081-2.593,6.552-2.743,10.234h-9.914v-2.051
	c0-0.004,0-0.009,0-0.014c0-0.547-0.45-0.999-0.999-0.999c-0.005,0-0.01,0-0.015,0c-0.547,0.009-0.991,0.465-0.984,1.013v2.883
	c-0.018,0.107-0.018,0.217,0,0.324v2.89c0,0.004,0,0.009,0,0.014c0,0.547,0.45,0.999,0.999,0.999c0.548,0,0.999-0.451,0.999-0.999
	c0-0.005,0-0.01,0-0.014v-2.049h9.914c0.15,3.682,1.125,7.152,2.743,10.234l-8.586,4.957l-1.024-1.775
	c-0.183-0.329-0.536-0.526-0.911-0.511c-0.533,0.02-0.961,0.464-0.961,0.998c0,0.181,0.049,0.358,0.141,0.512l1.407,2.436
	c0.045,0.154,0.126,0.294,0.236,0.41l1.404,2.433c0.179,0.309,0.509,0.499,0.866,0.499c0.547,0,0.999-0.45,0.999-0.999
	c0-0.176-0.046-0.348-0.134-0.499l-1.025-1.774l8.588-4.959c1.916,3.014,4.478,5.574,7.491,7.489l-4.959,8.588l-1.773-1.024
	c-0.144-0.086-0.307-0.135-0.474-0.141c-0.013,0-0.026-0.001-0.039-0.001c-0.547,0-0.999,0.451-0.999,0.999
	c0,0.363,0.197,0.697,0.513,0.873l2.641,1.526c0.011,0.006,0.021,0.011,0.031,0.017l2.607,1.506
	c0.152,0.088,0.324,0.134,0.499,0.134c0.548,0,0.999-0.45,0.999-0.999c0-0.357-0.191-0.687-0.499-0.865l-1.776-1.027l4.957-8.584
	c3.081,1.619,6.552,2.593,10.234,2.744v9.913h-2.048c-0.005,0-0.01,0-0.014,0c-0.548,0-1,0.451-1,0.999c0,0.548,0.451,0.999,1,0.999
	c0.004,0,0.009,0,0.014,0h2.881c0.108,0.018,0.217,0.018,0.325,0h2.889c0.005,0,0.01,0,0.014,0c0.548,0,0.999-0.45,0.999-0.999
	c0-0.547-0.45-0.999-0.999-0.999c-0.004,0-0.009,0-0.014,0h-2.049v-9.913c3.684-0.15,7.154-1.125,10.237-2.744l4.956,8.586
	l-1.773,1.025c-0.309,0.178-0.499,0.508-0.499,0.865c0,0.548,0.45,0.999,0.999,0.999c0.175,0,0.348-0.046,0.499-0.134l2.438-1.406
	c0.152-0.045,0.29-0.126,0.405-0.235l2.436-1.406c0.316-0.176,0.512-0.51,0.512-0.872c0-0.536-0.431-0.982-0.967-0.999
	c-0.191-0.006-0.38,0.043-0.544,0.141l-1.775,1.024l-4.959-8.589c3.013-1.916,5.575-4.476,7.491-7.49l8.588,4.959l-1.025,1.774
	c-0.088,0.152-0.134,0.324-0.134,0.499c0,0.548,0.451,0.999,0.999,0.999c0.357,0,0.687-0.191,0.866-0.499l1.513-2.622
	c0.013-0.02,0.024-0.04,0.035-0.061l1.498-2.596c0.093-0.155,0.141-0.332,0.141-0.511c0-0.544-0.444-0.994-0.989-0.999
	c-0.365-0.003-0.702,0.193-0.88,0.511l-1.026,1.775l-8.586-4.957c1.619-3.081,2.593-6.553,2.743-10.236h9.916v2.051
	c0,0.004,0,0.009,0,0.014c0,0.548,0.45,0.999,0.999,0.999c0.547,0,0.999-0.45,0.999-0.999c0-0.005,0-0.01,0-0.014v-2.882
	c0.018-0.108,0.018-0.218,0-0.326v-2.89c0-0.005,0-0.01,0-0.015c0-0.548-0.451-1-0.999-1c-0.005,0-0.011,0.001-0.016,0.001
	c-0.541,0.008-0.983,0.456-0.983,0.999c0,0.005,0,0.01,0,0.015v2.049h-9.916c-0.15-3.682-1.125-7.151-2.743-10.232l8.588-4.959
	l1.024,1.773c0.174,0.324,0.512,0.526,0.88,0.526c0.547,0,0.999-0.451,0.999-0.999c0-0.185-0.051-0.367-0.149-0.524l-1.443-2.501
	c-0.038-0.099-0.091-0.192-0.158-0.275l-1.445-2.505c-0.184-0.328-0.536-0.525-0.911-0.51c-0.533,0.02-0.961,0.464-0.961,0.998
	c0,0.18,0.049,0.357,0.141,0.511l1.025,1.776l-8.592,4.958c-1.916-3.013-4.476-5.575-7.489-7.491l4.959-8.587l1.773,1.024
	c0.152,0.088,0.325,0.134,0.499,0.134c0.548,0,1-0.45,1-0.999c0-0.357-0.192-0.687-0.5-0.865l-2.503-1.446
	c-0.081-0.065-0.172-0.118-0.269-0.156l-2.505-1.447c-0.144-0.086-0.307-0.134-0.474-0.141c-0.013,0-0.027,0-0.04,0
	c-0.548,0-0.999,0.45-0.999,0.999c0,0.362,0.197,0.696,0.512,0.872l1.775,1.027l-4.958,8.585c-3.081-1.618-6.551-2.592-10.233-2.743
	v-9.913h2.049c0.005,0,0.01,0,0.014,0c0.548,0,0.999-0.451,0.999-0.999c0-0.548-0.45-1-0.999-1c-0.004,0-0.009,0.001-0.014,0.001
	h-2.893C436.181,100.36,436.124,100.356,436.067,100.356L436.067,100.356L436.067,100.356z M286.761,103.841
	c-0.005,0-0.01,0-0.015,0c-0.547,0-0.999,0.45-0.999,0.999s0.451,0.999,0.999,0.999c0.005,0,0.01,0,0.015,0h5.721
	c0.005,0,0.009,0,0.014,0c0.548,0,0.999-0.45,0.999-0.999s-0.45-0.999-0.999-0.999c-0.005,0-0.009,0-0.014,0H286.761z
	 M308.777,103.841c-0.004,0-0.009,0-0.014,0c-0.547,0-0.999,0.45-0.999,0.999s0.451,0.999,0.999,0.999c0.005,0,0.01,0,0.014,0h5.722
	c0.005,0,0.009,0,0.014,0c0.548,0,0.999-0.45,0.999-0.999s-0.45-0.999-0.999-0.999c-0.005,0-0.009,0-0.014,0H308.777z
	 M294.848,109.592c-0.26,0.008-0.505,0.116-0.686,0.303l-4.044,4.043c-0.197,0.189-0.308,0.449-0.308,0.721
	c0,0.548,0.451,0.999,0.999,0.999c0.273,0,0.532-0.111,0.721-0.308l4.044-4.043c0.193-0.189,0.303-0.446,0.303-0.716
	c0-0.548-0.451-1-0.999-1C294.868,109.591,294.858,109.592,294.848,109.592L294.848,109.592z M306.381,109.592
	c-0.547,0-0.999,0.45-0.999,0.999c0,0.27,0.109,0.527,0.303,0.716l4.046,4.043c0.188,0.197,0.448,0.308,0.72,0.308
	c0.548,0,0.999-0.45,0.999-0.999c0-0.272-0.111-0.532-0.307-0.721l-4.046-4.043C306.91,109.701,306.651,109.592,306.381,109.592z
	 M300.615,111.975c-0.548,0.007-0.993,0.464-0.986,1.012v5.722c0,0.005,0,0.009,0,0.014c0,0.548,0.451,0.999,0.999,0.999
	c0.548,0,0.999-0.45,0.999-0.999c0-0.005,0-0.009,0-0.014v-5.722c0-0.004,0-0.009,0-0.013c0-0.548-0.45-0.999-0.999-0.999
	C300.624,111.975,300.619,111.975,300.615,111.975z M435.946,114.257c0.091,0.012,0.184,0.012,0.275,0
	c3.978,0.024,7.704,1.093,10.923,2.941c0.035,0.024,0.073,0.046,0.111,0.065c3.328,1.938,6.104,4.714,8.041,8.042
	c0.017,0.034,0.036,0.067,0.056,0.098c1.855,3.223,2.925,6.953,2.95,10.936c-0.013,0.092-0.013,0.184,0,0.276
	c-0.024,3.933-1.069,7.62-2.88,10.815c-0.083,0.096-0.146,0.206-0.188,0.326c-1.917,3.251-4.634,5.969-7.886,7.883
	c-0.108,0.039-0.209,0.096-0.297,0.169c-3.197,1.817-6.889,2.865-10.827,2.89c-0.052-0.008-0.105-0.012-0.158-0.012
	c-0.045,0.001-0.089,0.005-0.133,0.012c-3.931-0.026-7.617-1.071-10.809-2.882c-0.093-0.079-0.198-0.14-0.313-0.181
	c-3.25-1.915-5.969-4.63-7.884-7.879c-0.041-0.117-0.104-0.225-0.184-0.318c-1.814-3.197-2.86-6.887-2.884-10.823
	c0.013-0.092,0.013-0.184,0-0.276c0.025-3.987,1.098-7.721,2.955-10.946c0.017-0.026,0.032-0.052,0.045-0.08
	c1.938-3.331,4.715-6.11,8.045-8.048c0.035-0.018,0.069-0.038,0.102-0.059C428.231,115.352,431.962,114.281,435.946,114.257
	L435.946,114.257L435.946,114.257z M430.54,119.411c-4.566,0-8.289,3.722-8.289,8.289c0,4.565,3.723,8.289,8.289,8.289
	c4.565,0,8.288-3.723,8.288-8.289C438.828,123.133,435.106,119.411,430.54,119.411z M430.54,121.408c3.486,0,6.29,2.805,6.29,6.291
	c0,3.486-2.805,6.291-6.29,6.291c-3.487,0-6.291-2.806-6.291-6.291C424.249,124.213,427.053,121.408,430.54,121.408z
	 M449.403,137.018c-2.915,0-5.3,2.384-5.3,5.3c0,2.916,2.384,5.301,5.3,5.301c2.915,0,5.303-2.384,5.303-5.301
	C454.706,139.402,452.319,137.018,449.403,137.018z M449.403,139.016c1.837,0,3.305,1.466,3.305,3.302
	c0,1.837-1.468,3.303-3.305,3.303c-1.836,0-3.302-1.466-3.302-3.303C446.101,140.482,447.568,139.016,449.403,139.016z
	 M426.238,139.646c-2.915,0-5.303,2.384-5.303,5.3s2.387,5.303,5.303,5.303c2.915,0,5.301-2.387,5.301-5.303
	S429.154,139.646,426.238,139.646z M426.238,141.644c1.836,0,3.303,1.466,3.303,3.302c0,1.837-1.467,3.305-3.303,3.305
	c-1.836,0-3.305-1.468-3.305-3.305C422.933,143.11,424.403,141.644,426.238,141.644z M197.945,143.128
	c-0.447-0.005-0.847,0.291-0.972,0.72l-10.035,30.973l-10.035-30.973c-0.132-0.427-0.535-0.717-0.983-0.704
	c-0.537,0.014-0.972,0.46-0.972,0.998c0,0.109,0.018,0.218,0.053,0.321l10.987,33.906c0.134,0.41,0.518,0.69,0.95,0.69
	c0.431,0,0.817-0.28,0.95-0.69l10.985-33.906c0.039-0.108,0.058-0.221,0.058-0.336C198.93,143.583,198.488,143.135,197.945,143.128z
	 M119.865,143.155c-1.739,0-3.413,0.612-4.67,1.737c-1.257,1.124-1.99,2.685-1.99,4.323v23.787c0,1.638,0.732,3.197,1.99,4.321
	c1.257,1.125,2.931,1.737,4.67,1.737h16.308c0.005,0,0.009,0,0.014,0c0.548,0,0.999-0.451,0.999-0.999
	c0-0.548-0.45-0.999-0.999-0.999c-0.005,0-0.009,0-0.014,0h-16.308c-1.265,0-2.472-0.455-3.338-1.23
	c-0.866-0.774-1.324-1.785-1.324-2.831v-23.787c0-1.046,0.458-2.059,1.324-2.833c0.866-0.774,2.072-1.23,3.338-1.23h16.308
	c0.005,0,0.009,0,0.014,0c0.548,0,0.999-0.45,0.999-0.999c0-0.547-0.45-0.999-0.999-0.999c-0.005,0-0.009,0-0.014,0H119.865z
	 M304.828,153.194c-0.602,0.005-1.206,0.02-1.81,0.043c-4.408,0.166-8.814,0.333-12.844,0.485
	c-10.356,0.391-18.806,8.474-19.653,18.804l-0.106,1.298c-4.956-0.156-9.815,1.454-13.615,4.678
	c-4.057,3.442-6.583,8.357-7.019,13.659c-0.476,5.813-1.002,12.226-1.484,18.118c-0.462,5.627,1.331,11.206,4.982,15.511
	c0.267,0.315,0.555,0.605,0.839,0.903c-0.983,1.82-1.621,3.862-1.801,6.052c-0.668,8.143,5.171,15.29,13.14,16.472l-2.358,28.783
	c-2.394,0.086-4.675,1.063-6.375,2.763c-1.78,1.779-2.78,4.195-2.78,6.712v10.029H238.94c-29.641,0-55.395,23.981-57.589,53.617
	l-4.894,66.09c0,0.012,0,0.024,0,0.035l-1.805,24.346c-1.126,15.214,9.635,27.805,24.383,29.245v31.751H155.08v-21.595
	c0.012-0.092,0.012-0.185,0-0.276v-1.248c0-4.777-1.908-9.356-5.299-12.719c-2.892-2.867-6.431-6.38-8.897-8.825
	c-1.742-1.728-2.722-4.076-2.722-6.527v-15.956c0-10.505-8.487-19.053-18.969-19.151c-0.065-0.012-0.131-0.018-0.197-0.017
	c-0.057,0.001-0.114,0.007-0.17,0.017c-9.636,0.091-17.569,7.328-18.788,16.658c-0.201,0.279-0.244,0.641-0.115,0.96
	c-0.04,0.506-0.066,1.017-0.066,1.533v15.956c0,2.452-0.979,4.799-2.72,6.527c-2.358,2.337-5.69,5.644-8.504,8.435
	c-0.096,0.067-0.18,0.15-0.248,0.246c-0.048,0.048-0.099,0.098-0.146,0.145c-3.391,3.363-5.299,7.941-5.299,12.719v23.119H42.469
	c-0.005,0-0.01,0-0.015,0c-0.547,0-0.999,0.45-0.999,0.999c0,0.547,0.451,0.999,0.999,0.999c0.005,0,0.01,0,0.015,0h41.305
	c0.108,0.017,0.218,0.017,0.326,0h34.745c0.108,0.017,0.217,0.017,0.325,0h12.03c0.1,0.015,0.203,0.015,0.304,0h22.413
	c0.107,0.017,0.217,0.017,0.324,0h45.628c0.108,0.017,0.217,0.017,0.325,0h155.916c0.105,0.016,0.212,0.016,0.317,0h83.883
	c0.108,0.017,0.218,0.017,0.326,0h22.422c0.102,0.015,0.205,0.015,0.307,0h12.016c0.108,0.017,0.217,0.017,0.324,0h34.748
	c0.107,0.017,0.216,0.017,0.324,0h41.315c0.005,0,0.009,0,0.014,0c0.548,0,0.999-0.451,0.999-0.999c0-0.548-0.45-0.999-0.999-0.999
	c-0.005,0-0.009,0-0.014,0h-40.474v-23.119c0-4.777-1.908-9.356-5.299-12.719c-0.05-0.05-0.104-0.104-0.154-0.155
	c-0.062-0.083-0.136-0.156-0.219-0.216c-2.819-2.796-6.165-6.113-8.527-8.455c-1.742-1.728-2.72-4.076-2.72-6.527v-15.956
	c0-0.513-0.026-1.022-0.066-1.525c0.134-0.323,0.09-0.692-0.116-0.974c-1.221-9.326-9.151-16.559-18.783-16.652
	c-0.067-0.013-0.135-0.018-0.203-0.017c-0.058,0.001-0.116,0.006-0.172,0.017c-10.479,0.102-18.966,8.648-18.966,19.151v15.956
	c0,2.451-0.978,4.799-2.719,6.527c-2.468,2.445-6.008,5.959-8.897,8.825c-3.391,3.363-5.299,7.941-5.299,12.719v1.252
	c-0.013,0.091-0.013,0.184,0,0.275v21.592h-82.214c-0.016-2.762-0.252-46.041,0.847-84.303h6.906c0.548,0,0.999-0.45,0.999-0.999
	v-16.241v-19.814c1.072,0.378,11.024,3.886,25.586,9.018c12.715,4.482,26.885,0.856,35.885-9.182
	c8.999-10.039,11.063-24.52,5.225-36.673h0.002c-18.559-38.637-37.835-78.765-37.835-78.765c-0.057-0.124-0.139-0.235-0.241-0.326
	c-0.215-2.122-0.44-4.35-0.633-6.259c-0.636-6.286-5.944-11.085-12.261-11.085h-35.918c-1.628,0-3.185,0.319-4.613,0.897
	l1.118-13.65c3.046-2.157,7.082-5.014,11.164-7.905c10.092-7.143,16.505-18.391,17.516-30.715c0.022-0.264-0.063-0.525-0.234-0.727
	c0,0-8.492-10.009-17.319-20.414C341.334,161.156,323.502,153.025,304.828,153.194L304.828,153.194L304.828,153.194z
	 M304.846,155.193c18.083-0.164,35.348,7.707,47.086,21.542c8.671,10.223,16.72,19.711,17.012,20.057
	c-1.062,11.589-7.097,22.148-16.605,28.879c-3.582,2.536-6.91,4.892-9.797,6.937l2.045-24.943c0.043-0.522-0.332-0.995-0.851-1.071
	l-54.06-7.861c-0.065-0.01-0.132-0.013-0.199-0.01c-0.496,0.027-0.9,0.421-0.94,0.917l-1.299,15.821
	c-0.368,4.492-2.488,8.643-5.878,11.603c-2.354-4.609-6.866-7.994-12.389-8.447c-5.563-0.456-10.677,2.123-13.745,6.338
	c-0.139-0.154-0.289-0.296-0.423-0.455c-3.308-3.901-4.934-8.956-4.516-14.055c0.482-5.892,1.01-12.305,1.486-18.118
	c0.393-4.775,2.664-9.2,6.318-12.3c3.653-3.099,8.389-4.621,13.164-4.229c0.545,0.044,1.032-0.368,1.077-0.913l0.18-2.195
	c0.766-9.338,8.376-16.619,17.739-16.971c4.028-0.153,8.436-0.318,12.843-0.483C303.68,155.212,304.263,155.198,304.846,155.193
	L304.846,155.193L304.846,155.193z M88.672,156.114c-1.737,0-3.41,0.611-4.667,1.734c-1.259,1.125-1.993,2.686-1.993,4.323v15.89
	c0,0.004,0,0.009,0,0.014c0,0.547,0.451,0.999,0.999,0.999c0.548,0,1-0.451,1-0.999c0-0.005,0-0.01-0.001-0.014v-15.89
	c0-1.045,0.458-2.059,1.325-2.833c0.865-0.772,2.072-1.227,3.337-1.227H99.32c1.264,0,2.472,0.454,3.337,1.227
	c0.867,0.774,1.325,1.788,1.325,2.833v15.89c-0.001,0.004-0.001,0.009-0.001,0.014c0,0.547,0.451,0.999,1,0.999
	c0.547,0,0.999-0.451,0.999-0.999c0-0.005,0-0.01,0-0.014v-15.89c0-1.637-0.733-3.198-1.993-4.323
	c-1.257-1.123-2.93-1.734-4.667-1.734H88.672L88.672,156.114z M151.055,156.114c-1.737,0-3.41,0.612-4.667,1.734
	c-1.258,1.125-1.993,2.686-1.993,4.323v10.831c0,1.638,0.734,3.197,1.993,4.321s2.93,1.737,4.667,1.737h10.648
	c1.737,0,3.41-0.612,4.667-1.737c1.257-1.124,1.993-2.683,1.993-4.321v-10.831c0-1.637-0.734-3.198-1.993-4.323
	c-1.257-1.123-2.93-1.734-4.667-1.734H151.055z M151.055,158.112h10.648c1.264,0,2.471,0.454,3.337,1.227
	c0.866,0.774,1.325,1.788,1.325,2.833v10.831c0,1.045-0.459,2.057-1.325,2.831c-0.865,0.774-2.072,1.23-3.337,1.23h-10.648
	c-1.264,0-2.47-0.455-3.337-1.23c-0.866-0.774-1.325-1.785-1.325-2.831v-10.831c0-1.045,0.459-2.059,1.325-2.833
	C148.585,158.565,149.791,158.112,151.055,158.112z M290.44,200.861l52.082,7.575l-3.406,41.516
	c-3.206,2.087-5.392,5.627-5.599,9.709c-0.264,5.223-0.582,11.512-0.854,16.878c-0.015,0.289-0.006,0.575,0,0.863
	c-3.444,3.497-8.269,5.524-13.584,5.091l-53.98-4.426l2.425-29.58c0.044-0.545-0.368-1.031-0.913-1.077
	c-7.407-0.607-12.909-7.092-12.302-14.499c0.607-7.407,7.092-12.909,14.5-12.302c5.238,0.429,9.518,3.806,11.365,8.363
	c0.153,0.376,0.519,0.623,0.925,0.623c0.219,0,0.43-0.072,0.604-0.204c0.267-0.202,0.522-0.411,0.772-0.622c0.001,0,0.002,0,0.002,0
	c3.906-3.312,6.333-8.041,6.752-13.144v-0.002L290.44,200.861z M470.595,214.069c-0.541,0.009-0.983,0.457-0.983,0.999
	c0,0.006,0,0.011,0,0.016v5.72c0,0.004,0,0.009,0,0.014c0,0.547,0.45,0.999,0.999,0.999c0.547,0,0.999-0.451,0.999-0.999
	c0-0.005,0-0.01,0-0.014v-5.72c0-0.005,0-0.01,0-0.016c0-0.547-0.451-0.999-0.999-0.999
	C470.606,214.069,470.6,214.069,470.595,214.069z M460.793,218.137c-0.547,0.001-0.997,0.451-0.997,0.999
	c0,0.27,0.109,0.527,0.302,0.715l4.044,4.046c0.188,0.188,0.441,0.293,0.707,0.293c0.547,0,0.999-0.451,0.999-1
	c0-0.265-0.106-0.519-0.294-0.707l-4.044-4.044C461.322,218.245,461.062,218.136,460.793,218.137L460.793,218.137z M480.398,218.137
	c-0.26,0.007-0.506,0.116-0.687,0.302l-4.046,4.044c-0.188,0.188-0.293,0.442-0.293,0.707c0,0.548,0.45,1,0.999,1
	c0.265,0,0.519-0.105,0.706-0.293l4.046-4.046c0.194-0.188,0.303-0.446,0.303-0.716c0-0.547-0.45-0.999-0.999-0.999
	C480.417,218.136,480.407,218.136,480.398,218.137L480.398,218.137z M456.743,227.953c-0.005,0-0.009,0-0.014,0
	c-0.548,0-0.999,0.45-0.999,0.999c0,0.547,0.45,0.999,0.999,0.999c0.005,0,0.009,0,0.014,0h5.72c0.004,0,0.009,0,0.014,0
	c0.547,0,0.999-0.451,0.999-0.999c0-0.548-0.451-0.999-0.999-0.999c-0.005,0-0.01,0-0.014,0H456.743z M478.759,227.953
	c-0.005,0-0.009,0-0.014,0c-0.548,0-0.999,0.45-0.999,0.999c0,0.547,0.45,0.999,0.999,0.999c0.005,0,0.009,0,0.014,0h5.72
	c0.004,0,0.009,0,0.014,0c0.547,0,0.999-0.451,0.999-0.999c0-0.548-0.451-0.999-0.999-0.999c-0.005,0-0.01,0-0.014,0H478.759z
	 M476.362,233.704c-0.001,0-0.002,0-0.002,0c-0.548,0-0.999,0.45-0.999,0.999c0,0.27,0.11,0.529,0.304,0.717l4.046,4.044
	c0.189,0.196,0.448,0.308,0.72,0.308c0.548,0,1-0.451,1-1c0-0.272-0.111-0.531-0.308-0.72l-4.046-4.046
	C476.889,233.813,476.631,233.704,476.362,233.704L476.362,233.704z M464.829,233.706c-0.26,0.007-0.505,0.115-0.687,0.3
	l-4.044,4.046c-0.196,0.189-0.307,0.448-0.307,0.72c0,0.548,0.451,1,0.999,1c0.272,0,0.532-0.112,0.72-0.308l4.044-4.044
	c0.194-0.188,0.303-0.446,0.303-0.716c0-0.547-0.45-0.999-0.999-0.999C464.848,233.705,464.839,233.705,464.829,233.706
	L464.829,233.706z M470.595,236.085c-0.541,0.009-0.983,0.457-0.983,0.999c0,0.006,0,0.011,0,0.016v5.72c0,0.004,0,0.009,0,0.014
	c0,0.547,0.45,0.999,0.999,0.999c0.547,0,0.999-0.451,0.999-0.999c0-0.005,0-0.01,0-0.014v-5.72c0-0.005,0-0.01,0-0.016
	c0-0.547-0.451-0.999-0.999-0.999C470.606,236.085,470.6,236.085,470.595,236.085z M210.363,241.807
	c-0.547,0.008-0.991,0.465-0.983,1.013v5.723c0,0.005,0,0.009,0,0.014c0,0.548,0.45,0.999,0.999,0.999
	c0.548,0,0.999-0.45,0.999-0.999c0-0.005,0-0.009,0-0.014v-5.723c0-0.005,0-0.01,0-0.014c0-0.548-0.45-0.999-0.999-0.999
	C210.374,241.807,210.369,241.807,210.363,241.807z M128.899,242.448c-0.049,0.001-0.097,0.005-0.145,0.013h-2.886
	c-0.005,0-0.01,0-0.014,0c-0.548,0-1,0.451-1,0.999c0,0.548,0.451,0.999,1,0.999c0.004,0,0.009,0,0.014,0h2.048v9.914
	c-3.682,0.15-7.152,1.125-10.234,2.743l-4.958-8.586l1.775-1.024c0.316-0.176,0.512-0.51,0.512-0.872
	c0-0.536-0.431-0.982-0.967-0.999c-0.192-0.006-0.381,0.043-0.544,0.141l-2.499,1.441c-0.101,0.038-0.194,0.092-0.277,0.16
	l-2.503,1.445c-0.31,0.179-0.5,0.509-0.5,0.866c0,0.547,0.451,0.999,0.999,0.999c0.176,0,0.349-0.046,0.5-0.134l1.775-1.025
	l4.959,8.59c-3.014,1.916-5.575,4.477-7.491,7.491l-8.59-4.959l1.025-1.775c0.093-0.155,0.142-0.333,0.142-0.513
	c0-0.544-0.446-0.994-0.991-0.999c-0.366-0.003-0.704,0.194-0.882,0.513l-1.439,2.495c-0.068,0.083-0.122,0.175-0.16,0.275
	l-1.448,2.509c-0.087,0.152-0.133,0.324-0.133,0.499c0,0.548,0.45,0.999,0.999,0.999c0.357,0,0.686-0.191,0.865-0.499l1.024-1.775
	l8.586,4.958c-1.618,3.081-2.593,6.552-2.743,10.235h-9.912v-2.048c0-0.005,0-0.009,0-0.014c0-0.548-0.45-0.999-0.999-0.999
	c-0.005,0-0.01,0-0.016,0c-0.546,0.009-0.99,0.465-0.983,1.013v2.879c-0.018,0.108-0.018,0.218,0,0.326v2.888
	c0,0.005,0,0.01,0,0.014c0,0.548,0.45,1,0.999,1s0.999-0.451,0.999-1c0-0.004,0-0.009,0-0.014v-2.048h9.912
	c0.15,3.682,1.125,7.152,2.743,10.234l-8.586,4.957l-1.024-1.774c-0.183-0.328-0.536-0.525-0.911-0.511
	c-0.533,0.021-0.961,0.465-0.961,0.999c0,0.18,0.049,0.357,0.141,0.511l3.047,5.279c0.179,0.309,0.509,0.499,0.865,0.499
	c0.548,0,1-0.45,1-0.999c0-0.175-0.047-0.348-0.134-0.499l-1.025-1.775l8.59-4.959c1.916,3.013,4.477,5.574,7.491,7.489l-4.959,8.59
	l-1.775-1.025c-0.144-0.086-0.307-0.134-0.474-0.14c-0.013-0.001-0.026-0.001-0.039-0.001c-0.547,0-0.999,0.45-0.999,0.999
	c0,0.362,0.197,0.696,0.513,0.873l2.645,1.527c0.01,0.005,0.02,0.011,0.029,0.016l2.605,1.504c0.152,0.087,0.324,0.134,0.499,0.134
	c0.548,0,0.999-0.451,0.999-1c0-0.357-0.191-0.686-0.499-0.865l-1.774-1.024l4.955-8.586c3.081,1.618,6.552,2.593,10.234,2.743
	v9.914h-2.048c-0.005,0-0.01,0-0.014,0c-0.548,0-1,0.45-1,0.999c0,0.548,0.451,0.999,1,0.999c0.004,0,0.009,0,0.014,0h2.881
	c0.108,0.018,0.217,0.018,0.325,0h2.891c0.005,0,0.01,0,0.014,0c0.548,0,0.999-0.45,0.999-0.999c0-0.548-0.45-0.999-0.999-0.999
	c-0.004,0-0.009,0-0.014,0h-2.051v-9.914c3.684-0.15,7.154-1.124,10.237-2.743l4.958,8.586l-1.775,1.026
	c-0.309,0.178-0.499,0.508-0.499,0.865c0,0.548,0.45,1,0.999,1c0.175,0,0.348-0.047,0.499-0.135l5.279-3.048
	c0.316-0.177,0.512-0.511,0.512-0.873c0-0.535-0.431-0.981-0.967-0.998c-0.191-0.007-0.38,0.042-0.544,0.14l-1.773,1.025
	l-4.961-8.59c3.013-1.916,5.575-4.476,7.491-7.489l8.59,4.959l-1.027,1.775c-0.097,0.158-0.148,0.339-0.148,0.524
	c0,0.547,0.45,0.999,0.999,0.999c0.367,0,0.706-0.203,0.88-0.526l1.539-2.665c0-0.001,0.001-0.002,0.002-0.004l1.505-2.608
	c0.093-0.155,0.142-0.333,0.142-0.513c0-0.544-0.445-0.994-0.99-0.999c-0.365-0.002-0.702,0.195-0.88,0.513l-1.024,1.773
	l-8.588-4.956c1.619-3.082,2.593-6.553,2.743-10.237h9.916v2.051c0,0.005,0,0.01,0,0.014c0,0.548,0.45,0.999,0.999,0.999
	c0.547,0,0.999-0.45,0.999-0.999c0-0.004,0-0.009,0-0.014v-2.884c0.017-0.107,0.017-0.216,0-0.324v-2.888c0-0.005,0-0.009,0-0.014
	c0-0.548-0.451-0.999-0.999-0.999c-0.005,0-0.011,0-0.016,0c-0.547,0.009-0.991,0.465-0.983,1.013v2.047h-9.916
	c-0.15-3.681-1.125-7.15-2.743-10.232l8.588-4.959l1.026,1.776c0.173,0.328,0.513,0.533,0.884,0.533c0.548,0,0.999-0.45,0.999-0.999
	c0-0.189-0.054-0.374-0.155-0.533l-1.431-2.48c-0.04-0.112-0.101-0.217-0.178-0.308l-1.437-2.491
	c-0.184-0.328-0.536-0.526-0.911-0.511c-0.533,0.021-0.961,0.464-0.961,0.998c0,0.181,0.049,0.358,0.141,0.512l1.027,1.775
	l-8.592,4.959c-1.916-3.014-4.477-5.577-7.491-7.493l4.959-8.588l1.775,1.025c0.152,0.087,0.325,0.134,0.499,0.134
	c0.548,0,1-0.451,1-0.999c0-0.357-0.192-0.687-0.5-0.866l-2.501-1.443c-0.084-0.068-0.178-0.122-0.279-0.16l-2.501-1.444
	c-0.143-0.085-0.306-0.134-0.472-0.14c-0.012-0.001-0.025-0.001-0.038-0.001c-0.548,0-0.999,0.451-0.999,0.999
	c0,0.362,0.197,0.697,0.512,0.873l1.773,1.024l-4.958,8.586c-3.081-1.618-6.551-2.593-10.233-2.743v-9.914h2.049
	c0.005,0,0.01,0,0.014,0c0.548,0,0.999-0.45,0.999-0.999c0-0.548-0.45-0.999-0.999-0.999c-0.004,0-0.009,0-0.014,0h-2.892
	c-0.056-0.009-0.113-0.014-0.17-0.014L128.899,242.448L128.899,242.448z M200.56,245.875c-0.547,0.001-0.997,0.451-0.997,0.999
	c0,0.27,0.109,0.528,0.303,0.716l4.043,4.046c0.189,0.196,0.449,0.307,0.721,0.307c0.547,0,0.999-0.45,0.999-0.999
	c0-0.272-0.111-0.532-0.308-0.72l-4.043-4.046C201.09,245.983,200.83,245.875,200.56,245.875L200.56,245.875z M220.166,245.875
	c-0.26,0.008-0.506,0.117-0.687,0.303l-4.046,4.046c-0.196,0.188-0.307,0.448-0.307,0.72c0,0.548,0.45,0.999,0.999,0.999
	c0.272,0,0.532-0.111,0.721-0.307l4.045-4.046c0.194-0.188,0.303-0.446,0.303-0.716c0-0.548-0.45-0.999-0.999-0.999
	C220.185,245.875,220.176,245.875,220.166,245.875L220.166,245.875z M345.824,249.958h35.918c5.309,0,9.738,4.004,10.273,9.288
	c0.52,5.149,1.158,11.442,1.707,16.878c0.294,2.906-0.656,5.797-2.614,7.963c-1.959,2.166-4.741,3.402-7.661,3.402h-33.961
	c-0.051-0.008-0.104-0.013-0.156-0.013c-0.054,0-0.108,0.004-0.162,0.013h-4.196c-2.83,0-5.534-1.163-7.483-3.213
	c-1.659-1.743-2.639-4-2.81-6.374c0.014-0.118,0.006-0.237-0.021-0.352c-0.012-0.302-0.016-0.604,0-0.909
	c0.272-5.366,0.588-11.656,0.852-16.879C335.789,254.258,340.314,249.958,345.824,249.958L345.824,249.958L345.824,249.958z
	 M196.508,255.691c-0.005,0-0.009,0-0.014,0c-0.548,0-0.999,0.451-0.999,0.999c0,0.548,0.45,0.999,0.999,0.999
	c0.005,0,0.009,0,0.014,0h5.722c0.004,0,0.009,0,0.014,0c0.547,0,0.999-0.45,0.999-0.999c0-0.547-0.451-0.999-0.999-0.999
	c-0.005,0-0.01,0-0.014,0L196.508,255.691L196.508,255.691z M218.525,255.691c-0.005,0-0.009,0-0.014,0
	c-0.548,0-0.999,0.451-0.999,0.999c0,0.548,0.45,0.999,0.999,0.999c0.005,0,0.009,0,0.014,0h5.722c0.004,0,0.009,0,0.014,0
	c0.547,0,0.999-0.45,0.999-0.999c0-0.547-0.451-0.999-0.999-0.999c-0.005,0-0.01,0-0.014,0L218.525,255.691L218.525,255.691z
	 M128.778,256.348c0.091,0.013,0.184,0.013,0.275,0c3.979,0.025,7.707,1.094,10.927,2.944c0.032,0.021,0.066,0.041,0.101,0.058
	c6.58,3.828,11.008,10.935,11.054,19.095c-0.011,0.083-0.011,0.168,0,0.251c-0.023,3.941-1.069,7.634-2.884,10.833
	c-0.076,0.091-0.136,0.194-0.176,0.305c-1.919,3.261-4.644,5.985-7.906,7.902c-0.1,0.038-0.194,0.091-0.277,0.158
	c-3.203,1.822-6.902,2.873-10.849,2.895c-0.048-0.007-0.096-0.011-0.144-0.01c-0.041,0-0.082,0.004-0.123,0.01
	c-3.934-0.024-7.624-1.07-10.819-2.882c-0.093-0.079-0.198-0.141-0.313-0.182c-3.251-1.915-5.971-4.632-7.886-7.882
	c-0.041-0.113-0.101-0.218-0.178-0.309c-1.816-3.198-2.864-6.89-2.888-10.829c0.013-0.091,0.013-0.184,0-0.275
	c0.025-3.987,1.098-7.721,2.955-10.946c0.017-0.026,0.032-0.053,0.045-0.08c1.938-3.331,4.715-6.11,8.045-8.049
	c0.036-0.018,0.07-0.038,0.103-0.06C121.065,257.443,124.795,256.373,128.778,256.348L128.778,256.348L128.778,256.348z
	 M316.181,256.546c-4.959,0.099-9.159,3.95-9.572,8.997c0,0,0,0.001,0,0.002c-0.267,3.255-0.505,6.172-0.505,6.172
	c-0.005,0.039-0.007,0.079-0.007,0.118c0,0.548,0.45,0.999,0.999,0.999c0.53,0,0.973-0.422,0.998-0.953c0,0,0.241-2.917,0.507-6.174
	c0.354-4.307,4.11-7.493,8.417-7.14l4.249,0.35c0.028,0.002,0.055,0.003,0.083,0.003c0.548,0,0.999-0.45,0.999-0.999
	c0-0.517-0.402-0.954-0.918-0.996l-4.248-0.348C316.845,256.549,316.511,256.539,316.181,256.546L316.181,256.546L316.181,256.546z
	 M204.597,261.442c-0.26,0.008-0.506,0.116-0.687,0.303l-4.043,4.046c-0.197,0.188-0.308,0.448-0.308,0.72
	c0,0.548,0.45,0.999,0.999,0.999c0.272,0,0.532-0.111,0.721-0.307l4.043-4.046c0.194-0.188,0.303-0.446,0.303-0.716
	c0-0.548-0.45-0.999-0.999-0.999C204.616,261.442,204.606,261.442,204.597,261.442L204.597,261.442z M216.13,261.442
	c-0.548,0-0.999,0.451-0.999,0.999c0,0.27,0.109,0.528,0.302,0.716l4.046,4.046c0.189,0.196,0.448,0.307,0.721,0.307
	c0.547,0,0.999-0.45,0.999-0.999c0-0.272-0.111-0.532-0.308-0.72l-4.045-4.046C216.657,261.551,216.399,261.442,216.13,261.442z
	 M123.373,261.503c-4.566,0-8.289,3.723-8.289,8.288c0,4.566,3.722,8.289,8.289,8.289c4.565,0,8.288-3.722,8.288-8.289
	C131.661,265.225,127.938,261.503,123.373,261.503z M123.373,263.5c3.486,0,6.29,2.805,6.29,6.29c0,3.487-2.805,6.291-6.29,6.291
	c-3.487,0-6.291-2.805-6.291-6.291C117.081,266.305,119.886,263.5,123.373,263.5z M210.363,263.826
	c-0.547,0.008-0.991,0.465-0.983,1.012v5.722c0,0.005,0,0.009,0,0.014c0,0.548,0.45,0.999,0.999,0.999
	c0.548,0,0.999-0.45,0.999-0.999c0-0.005,0-0.009,0-0.014v-5.722c0-0.004,0-0.009,0-0.013c0-0.548-0.45-0.999-0.999-0.999
	C210.374,263.826,210.368,263.826,210.363,263.826z M395.204,270.924c1.987,4.136,18.19,37.872,35.705,74.336
	c5.49,11.429,3.552,25.032-4.912,34.472c-8.464,9.44-21.776,12.846-33.733,8.632c-14.941-5.265-25.695-9.057-26.249-9.252v-46.597
	l7.382,18.306c0.152,0.378,0.519,0.626,0.926,0.626c0.548,0,1-0.451,1-1c0-0.128-0.025-0.255-0.073-0.374l-9.276-22.997v-0.002
	c-0.019-0.064-0.045-0.127-0.076-0.186l-15.084-37.404h32.633c3.483,0,6.807-1.475,9.144-4.059c0-0.001,0-0.002,0-0.002
	c2.335-2.585,3.469-6.036,3.119-9.503C395.547,274.313,395.377,272.632,395.204,270.924L395.204,270.924L395.204,270.924z
	 M142.236,279.109c-2.915,0-5.3,2.387-5.3,5.303c0,2.915,2.384,5.301,5.3,5.301s5.303-2.385,5.303-5.301
	C147.539,281.496,145.151,279.109,142.236,279.109z M332.96,279.861c0.485,2.154,1.531,4.163,3.08,5.792
	c2.326,2.446,5.556,3.833,8.931,3.833h3.687l7.673,19.022c-6.229-6.79-15.25-11.003-25.53-11.003h-7.135v-10.029
	c0-1.073-0.193-2.122-0.538-3.117C326.845,283.837,330.23,282.229,332.96,279.861L332.96,279.861z M263.742,279.937
	c0.065,0.019,0.131,0.032,0.199,0.039l54.975,4.508c0.721,0.059,1.435,0.074,2.139,0.053c0.394,0.922,0.613,1.918,0.613,2.939
	v10.862c-0.018,0.108-0.018,0.217,0,0.325v1.336c0,1.988-0.791,3.892-2.196,5.298c0,0.001,0,0.002,0,0.002
	c-1.405,1.406-3.31,2.195-5.299,2.195h-50.736c-1.988,0-3.894-0.791-5.301-2.197c-1.405-1.405-2.194-3.31-2.194-5.298v-1.328
	c0.018-0.108,0.018-0.217,0-0.325v-10.869c0-1.99,0.789-3.895,2.194-5.301c1.406-1.406,3.313-2.194,5.301-2.194
	C263.54,279.982,263.643,279.967,263.742,279.937L263.742,279.937L263.742,279.937z M142.236,281.108
	c1.837,0,3.305,1.468,3.305,3.304c0,1.836-1.468,3.303-3.305,3.303c-1.836,0-3.302-1.467-3.302-3.303
	C138.934,282.576,140.4,281.108,142.236,281.108z M119.071,281.737c-2.915,0-5.301,2.387-5.301,5.303
	c0,2.915,2.385,5.301,5.301,5.301s5.301-2.385,5.301-5.301C124.372,284.124,121.986,281.737,119.071,281.737z M499.123,281.874
	c-0.049,0.001-0.097,0.006-0.145,0.014h-2.889c-0.005,0-0.01,0-0.015,0c-0.547,0-0.999,0.45-0.999,0.999
	c0,0.547,0.451,0.999,0.999,0.999c0.005,0,0.01,0,0.015,0h2.05v9.916c-3.682,0.15-7.152,1.124-10.234,2.743l-4.959-8.588
	l1.776-1.024c0.316-0.177,0.512-0.511,0.512-0.873c0-0.535-0.431-0.981-0.967-0.998c-0.192-0.007-0.381,0.042-0.544,0.14
	l-2.499,1.442c-0.101,0.038-0.194,0.092-0.278,0.16l-2.502,1.445c-0.31,0.178-0.5,0.508-0.5,0.865c0,0.548,0.451,0.999,0.999,0.999
	c0.176,0,0.348-0.046,0.5-0.134l1.775-1.024l4.959,8.59c-3.014,1.915-5.577,4.477-7.493,7.491l-8.588-4.959l1.025-1.776
	c0.092-0.154,0.14-0.331,0.14-0.51c0-0.545-0.445-0.995-0.991-0.999c-0.365-0.003-0.702,0.193-0.88,0.51l-1.435,2.486
	c-0.076,0.09-0.134,0.192-0.174,0.302l-1.438,2.492c-0.088,0.152-0.134,0.324-0.134,0.499c0,0.547,0.451,0.999,0.999,0.999
	c0.357,0,0.687-0.191,0.866-0.499l1.024-1.774l8.586,4.957c-1.619,3.081-2.593,6.552-2.743,10.234h-9.914v-2.049
	c0-0.004,0-0.009,0-0.013c0-0.548-0.45-0.999-0.999-0.999c-0.005,0-0.01,0-0.016,0c-0.547,0.008-0.991,0.464-0.983,1.012v2.882
	c-0.018,0.107-0.018,0.217,0,0.324v2.891c0,0.005,0,0.009,0,0.014c0,0.548,0.45,0.999,0.999,0.999c0.548,0,0.999-0.45,0.999-0.999
	c0-0.005,0-0.009,0-0.014v-2.051h9.914c0.15,3.682,1.124,7.152,2.743,10.234l-8.586,4.959l-1.024-1.775
	c-0.184-0.328-0.536-0.526-0.911-0.511c-0.533,0.021-0.961,0.464-0.961,0.998c0,0.181,0.049,0.358,0.141,0.512l1.387,2.403
	c0.045,0.179,0.139,0.342,0.271,0.47l1.389,2.405c0.179,0.309,0.508,0.499,0.865,0.499c0.548,0,0.999-0.45,0.999-0.999
	c0-0.176-0.046-0.348-0.133-0.499l-1.025-1.775l8.59-4.959c1.915,3.013,4.476,5.575,7.489,7.491l-4.957,8.587l-1.775-1.024
	c-0.144-0.086-0.308-0.134-0.474-0.141c-0.013,0-0.026,0-0.039,0c-0.547,0-0.999,0.45-0.999,0.999c0,0.362,0.197,0.696,0.513,0.872
	l2.399,1.385c0.132,0.139,0.302,0.236,0.487,0.281l2.392,1.381c0.152,0.088,0.324,0.134,0.499,0.134c0.548,0,0.999-0.45,0.999-0.999
	c0-0.357-0.191-0.687-0.499-0.865l-1.776-1.025l4.957-8.583c3.081,1.618,6.552,2.592,10.234,2.743v9.912h-2.048
	c-0.005-0.001-0.01-0.001-0.015-0.001c-0.547,0-0.999,0.451-0.999,1c0,0.547,0.451,0.999,0.999,0.999c0.005,0,0.01,0,0.015,0h2.881
	c0.108,0.017,0.217,0.017,0.325,0h2.891c0.005,0,0.009,0,0.014,0c0.548,0,0.999-0.451,0.999-0.999c0-0.548-0.45-1-0.999-1
	c-0.005,0-0.009,0-0.014,0.001h-2.051v-9.912c3.683-0.15,7.154-1.125,10.236-2.743l4.957,8.585l-1.773,1.025
	c-0.309,0.178-0.499,0.508-0.499,0.865c0,0.548,0.45,0.999,0.999,0.999c0.175,0,0.348-0.046,0.499-0.134l5.279-3.049
	c0.314-0.177,0.509-0.509,0.509-0.87c0-0.535-0.43-0.98-0.964-0.999c-0.191-0.006-0.38,0.043-0.544,0.141l-1.775,1.024l-4.959-8.589
	c3.013-1.916,5.575-4.477,7.491-7.491l8.589,4.959l-1.026,1.775c-0.088,0.152-0.134,0.324-0.134,0.499
	c0,0.548,0.451,0.999,0.999,0.999c0.357,0,0.687-0.191,0.866-0.499l3.046-5.279c0.093-0.155,0.142-0.333,0.142-0.513
	c0-0.544-0.445-0.994-0.99-0.999c-0.365-0.003-0.703,0.195-0.88,0.513l-1.025,1.773l-8.587-4.957
	c1.618-3.081,2.593-6.552,2.743-10.234h9.916v2.048c0,0.005,0,0.009,0,0.014c0,0.548,0.45,0.999,0.999,0.999
	c0.547,0,0.999-0.45,0.999-0.999c0-0.005,0-0.009,0-0.014v-2.882c0.017-0.107,0.017-0.217,0-0.324v-2.892c0-0.004,0-0.009,0-0.013
	c0-0.548-0.451-0.999-0.999-0.999c-0.006,0-0.011,0-0.016,0c-0.547,0.008-0.991,0.465-0.983,1.012v2.051h-9.916
	c-0.15-3.682-1.125-7.152-2.743-10.234l8.587-4.957l1.025,1.774c0.178,0.309,0.508,0.499,0.865,0.499
	c0.548,0,0.999-0.451,0.999-0.999c0-0.176-0.046-0.348-0.134-0.499l-1.443-2.503c-0.038-0.098-0.09-0.189-0.156-0.27l-1.448-2.507
	c-0.183-0.328-0.535-0.525-0.911-0.51c-0.532,0.02-0.96,0.464-0.96,0.998c0,0.18,0.049,0.357,0.141,0.511l1.024,1.776l-8.591,4.959
	c-1.916-3.014-4.477-5.576-7.491-7.491l4.961-8.59l1.775,1.024c0.152,0.088,0.325,0.134,0.499,0.134c0.548,0,0.999-0.45,0.999-0.999
	c0-0.357-0.191-0.687-0.499-0.865l-2.503-1.445c-0.082-0.067-0.174-0.121-0.273-0.159l-2.503-1.443
	c-0.144-0.086-0.307-0.134-0.474-0.14c-0.013-0.001-0.026-0.001-0.038-0.001c-0.548,0-1,0.45-1,0.999
	c0,0.362,0.197,0.696,0.513,0.873l1.773,1.024l-4.959,8.588c-3.08-1.618-6.55-2.593-10.232-2.743v-9.916h2.048
	c0.005,0,0.009,0,0.014,0c0.548,0,0.999-0.451,0.999-0.999c0-0.548-0.45-0.999-0.999-0.999c-0.005,0-0.009,0-0.014,0h-2.892
	C499.236,281.878,499.18,281.874,499.123,281.874L499.123,281.874z M119.071,283.735c1.836,0,3.303,1.469,3.303,3.305
	c0,1.836-1.467,3.303-3.303,3.303s-3.303-1.467-3.303-3.303S117.235,283.735,119.071,283.735z M499.002,295.777
	c0.091,0.013,0.184,0.013,0.275,0c3.993,0.024,7.732,1.101,10.96,2.963c0.018,0.011,0.037,0.023,0.056,0.033
	c6.583,3.824,11.016,10.927,11.065,19.086c-0.012,0.092-0.012,0.184,0,0.276c-0.024,3.936-1.07,7.625-2.883,10.821
	c-0.077,0.09-0.136,0.193-0.176,0.304c-1.917,3.258-4.638,5.982-7.894,7.899c-0.108,0.039-0.209,0.096-0.297,0.17
	c-3.197,1.816-6.889,2.864-10.827,2.889c-0.053-0.008-0.105-0.012-0.158-0.012c-0.045,0.001-0.089,0.005-0.133,0.012
	c-3.929-0.026-7.614-1.072-10.806-2.882c-0.097-0.084-0.211-0.149-0.334-0.191c-3.243-1.915-5.957-4.63-7.868-7.875
	c-0.041-0.112-0.101-0.217-0.178-0.308c-1.816-3.198-2.864-6.89-2.887-10.829c0.013-0.092,0.013-0.184,0-0.276
	c0.024-3.898,1.051-7.556,2.833-10.731c0.14-0.133,0.239-0.305,0.283-0.493C483.886,300.165,490.928,295.826,499.002,295.777
	L499.002,295.777L499.002,295.777z M238.94,299.503h15.005v0.496c0,2.516,1,4.932,2.78,6.712c1.78,1.781,4.196,2.78,6.713,2.78
	h50.736c2.518,0,4.931-1.001,6.711-2.782c0.284-0.284,0.54-0.588,0.784-0.903v38.851h-85.143l0.473-6.392
	c0.003-0.029,0.004-0.059,0.004-0.089c0-0.547-0.45-0.999-0.999-0.999c-0.014,0-0.029,0.001-0.043,0.001
	c-0.509,0.021-0.925,0.429-0.956,0.939l-0.54,7.311c-0.023,0.1-0.031,0.204-0.023,0.307l-3.391,45.796
	c-0.024,0.102-0.032,0.207-0.023,0.311l-1.811,24.446h-11.425c-0.005,0-0.01,0-0.014,0c-0.548,0-0.999,0.451-0.999,0.999
	c0,0.548,0.45,0.999,0.999,0.999c0.004,0,0.009,0,0.014,0h71.416v50.695h-87.341c-15.098,0-26.34-12.137-25.221-27.238l1.802-24.34
	c0.002-0.014,0.003-0.028,0.004-0.041l4.893-66.092c2.114-28.565,27.035-51.765,55.597-51.765L238.94,299.503L238.94,299.503z
	 M323.665,299.503h7.135c12.833,0,23.482,6.875,28.807,17.128l4.409,10.932v72.483h-40.351v-8.117c0.018-0.108,0.018-0.219,0-0.327
	v-45.779c0.018-0.108,0.018-0.218,0-0.326L323.665,299.503L323.665,299.503z M493.596,300.929c-4.565,0-8.288,3.722-8.288,8.289
	c0,4.566,3.723,8.289,8.288,8.289c4.566,0,8.289-3.723,8.289-8.289C501.885,304.652,498.162,300.929,493.596,300.929z
	 M493.596,302.927c3.487,0,6.291,2.805,6.291,6.291s-2.805,6.291-6.291,6.291c-3.486,0-6.29-2.805-6.29-6.291
	S490.11,302.927,493.596,302.927z M512.46,318.539c-2.915,0-5.3,2.385-5.3,5.301c0,2.915,2.384,5.3,5.3,5.3s5.303-2.384,5.303-5.3
	C517.763,320.924,515.376,318.539,512.46,318.539z M512.46,320.536c1.836,0,3.305,1.466,3.305,3.303
	c0,1.836-1.469,3.302-3.305,3.302c-1.836,0-3.302-1.466-3.302-3.302C509.158,322.003,510.624,320.536,512.46,320.536z
	 M489.295,321.167c-2.915,0-5.303,2.384-5.303,5.301c0,2.915,2.387,5.3,5.303,5.3c2.915,0,5.3-2.384,5.3-5.3
	C494.595,323.551,492.211,321.167,489.295,321.167z M489.295,323.164c1.836,0,3.302,1.466,3.302,3.303
	c0,1.836-1.466,3.302-3.302,3.302c-1.836,0-3.305-1.466-3.305-3.302C485.99,324.63,487.459,323.164,489.295,323.164z
	 M236.378,346.655h85.29v44.108h-88.555L236.378,346.655L236.378,346.655z M69.342,362.682c-0.542,0.009-0.984,0.457-0.984,0.999
	c0,0.006,0,0.011,0.001,0.016v5.72c-0.001,0.004-0.001,0.009-0.001,0.014c0,0.547,0.451,0.999,1,0.999
	c0.547,0,0.999-0.451,0.999-0.999c0-0.005,0-0.01,0-0.014v-5.72c0-0.005,0-0.01,0-0.016c0-0.547-0.451-0.999-0.999-0.999
	C69.352,362.682,69.347,362.682,69.342,362.682z M59.539,366.75c-0.547,0-0.998,0.45-0.998,0.999c0,0.27,0.109,0.527,0.302,0.715
	l4.048,4.046c0.187,0.187,0.441,0.293,0.706,0.293c0.548,0,1-0.451,1-1c0-0.265-0.106-0.519-0.294-0.707l-4.048-4.044
	C60.067,366.859,59.809,366.75,59.539,366.75L59.539,366.75z M79.144,366.75c-0.259,0.007-0.505,0.116-0.686,0.302l-4.046,4.044
	c-0.188,0.188-0.294,0.442-0.294,0.707c0,0.548,0.451,1,1,1c0.265,0,0.519-0.105,0.706-0.293l4.046-4.046
	c0.194-0.188,0.303-0.446,0.303-0.716c0-0.547-0.451-0.999-0.999-0.999C79.164,366.749,79.154,366.749,79.144,366.75L79.144,366.75z
	 M55.488,376.567c-0.005,0-0.01,0-0.014,0c-0.548,0-0.999,0.45-0.999,0.999c0,0.547,0.45,0.999,0.999,0.999c0.004,0,0.009,0,0.014,0
	h5.721c0.005,0,0.01,0,0.014,0c0.548,0,1-0.451,1-0.999c0-0.548-0.451-0.999-1-0.999c-0.004,0-0.009,0-0.014,0H55.488z
	 M77.506,376.567c-0.005,0-0.01,0-0.014,0c-0.548,0-1,0.45-1,0.999c0,0.547,0.451,0.999,1,0.999c0.004,0,0.009,0,0.014,0h5.719
	c0.005,0,0.01,0,0.014,0c0.548,0,1-0.451,1-0.999c0-0.548-0.451-0.999-1-0.999c-0.004,0-0.009,0-0.014,0H77.506z M75.108,382.318
	L75.108,382.318c-0.549,0-1.001,0.45-1.001,0.999c0,0.27,0.11,0.529,0.305,0.717l4.046,4.044c0.188,0.196,0.448,0.307,0.72,0.307
	c0.548,0,0.999-0.45,0.999-0.999c0-0.272-0.111-0.531-0.307-0.72l-4.046-4.046C75.636,382.427,75.378,382.318,75.108,382.318z
	 M63.577,382.32c-0.259,0.007-0.505,0.115-0.686,0.3l-4.048,4.046c-0.196,0.189-0.307,0.448-0.307,0.72c0,0.548,0.45,1,0.999,1
	c0.272,0,0.532-0.112,0.72-0.308l4.048-4.044c0.194-0.188,0.303-0.446,0.303-0.716c0-0.547-0.45-0.999-0.999-0.999
	C63.597,382.319,63.587,382.319,63.577,382.32L63.577,382.32z M525.997,383.153c-0.547,0.008-0.991,0.464-0.983,1.012v5.722
	c-0.001,0.004-0.001,0.009-0.001,0.014c0,0.548,0.451,0.999,1,0.999c0.547,0,0.999-0.45,0.999-0.999c0-0.005,0-0.01,0-0.014v-5.722
	c0-0.004,0-0.009,0-0.013c0-0.548-0.451-1-0.999-1C526.007,383.152,526.002,383.152,525.997,383.153z M69.342,384.699
	c-0.542,0.009-0.984,0.457-0.984,0.999c0,0.006,0,0.011,0.001,0.016v5.72c-0.001,0.004-0.001,0.009-0.001,0.014
	c0,0.547,0.451,0.999,1,0.999c0.547,0,0.999-0.451,0.999-0.999c0-0.005,0-0.01,0-0.014v-5.72c0-0.005,0-0.01,0-0.016
	c0-0.547-0.451-0.999-0.999-0.999C69.352,384.699,69.347,384.699,69.342,384.699z M516.194,387.218c-0.547,0-0.998,0.45-0.998,0.999
	c0,0.27,0.109,0.527,0.302,0.716l4.048,4.045c0.188,0.197,0.448,0.308,0.72,0.308c0.548,0,1-0.451,1-0.999
	c0-0.272-0.112-0.532-0.308-0.721l-4.048-4.045C516.722,387.327,516.463,387.218,516.194,387.218L516.194,387.218z M535.799,387.218
	c-0.259,0.008-0.505,0.116-0.686,0.303l-4.046,4.045c-0.196,0.189-0.307,0.449-0.307,0.721c0,0.547,0.451,0.999,0.999,0.999
	c0.272,0,0.532-0.111,0.72-0.308l4.046-4.045c0.194-0.189,0.303-0.446,0.303-0.716c0-0.548-0.451-1-0.999-1
	C535.819,387.217,535.809,387.218,535.799,387.218L535.799,387.218z M232.964,392.76h88.704v23.528h-31.462h-58.984L232.964,392.76
	L232.964,392.76z M512.143,397.036c-0.005,0-0.01,0-0.014,0c-0.548,0-0.999,0.45-0.999,0.999s0.45,0.999,0.999,0.999
	c0.004,0,0.009,0,0.014,0h5.721c0.005,0,0.01,0,0.014,0c0.548,0,1-0.45,1-0.999s-0.451-0.999-1-0.999c-0.004,0-0.009,0-0.014,0
	H512.143z M534.159,397.036c-0.005,0-0.01,0-0.014,0c-0.548,0-0.999,0.45-0.999,0.999s0.45,0.999,0.999,0.999
	c0.004,0,0.009,0,0.014,0h5.721c0.005,0,0.01,0,0.014,0c0.548,0,1-0.45,1-0.999s-0.451-0.999-1-0.999c-0.004,0-0.009,0-0.014,0
	H534.159z M323.665,402.044h40.351v14.244h-6.724c-0.048-0.008-0.096-0.012-0.145-0.013c-0.057-0.001-0.114,0.004-0.17,0.013
	h-32.396h-0.917V402.044z M520.232,402.787c-0.259,0.007-0.505,0.116-0.686,0.302l-4.048,4.044
	c-0.188,0.188-0.294,0.442-0.294,0.708c0,0.547,0.451,0.999,1,0.999c0.265,0,0.519-0.105,0.706-0.293l4.048-4.045
	c0.194-0.189,0.303-0.447,0.303-0.717c0-0.547-0.45-0.999-0.999-0.999C520.252,402.786,520.242,402.786,520.232,402.787
	L520.232,402.787z M531.763,402.787c-0.547,0-0.998,0.45-0.998,0.999c0,0.27,0.109,0.527,0.302,0.716l4.046,4.045
	c0.187,0.188,0.441,0.293,0.706,0.293c0.548,0,0.999-0.451,0.999-1c0-0.265-0.105-0.519-0.293-0.707l-4.046-4.044
	C532.291,402.896,532.032,402.787,531.763,402.787L531.763,402.787z M525.997,405.169c-0.547,0.008-0.991,0.464-0.983,1.012v5.722
	c-0.001,0.004-0.001,0.009-0.001,0.014c0,0.547,0.451,0.999,1,0.999c0.547,0,0.999-0.451,0.999-0.999c0-0.005,0-0.01,0-0.014v-5.722
	c0-0.004,0-0.009,0-0.014c0-0.547-0.451-0.999-0.999-0.999C526.007,405.168,526.002,405.168,525.997,405.169z M291.205,418.285
	h33.378c3.918,0,7.633,1.748,10.132,4.766c2.501,3.018,3.524,6.992,2.794,10.842c-1.507,7.949-3.268,17.241-4.621,24.379
	c-1.179,6.218-6.597,10.708-12.925,10.708h-28.756V418.285z M332.063,418.285h24.047c-1.099,38.285-0.861,81.506-0.845,84.303
	H201.032v-31.632c0.278,0.008,0.553,0.021,0.833,0.021h118.096c7.275,0,13.534-5.185,14.888-12.332
	c1.353-7.139,3.114-16.43,4.621-24.38c0.84-4.433-0.339-9.013-3.217-12.489l-0.002-0.002
	C335.068,420.347,333.639,419.182,332.063,418.285L332.063,418.285L332.063,418.285z M118.011,418.336v30.948l-16.006-16.007
	C103.029,425.144,109.719,418.814,118.011,418.336z M120.009,418.336c9.018,0.518,16.156,7.956,16.156,17.106v15.956
	c0,2.46,0.824,4.828,2.296,6.765l-18.453,18.451V451.87c0.018-0.106,0.018-0.215,0-0.322L120.009,418.336L120.009,418.336z
	 M474.545,418.336v33.206c-0.018,0.11-0.018,0.222,0,0.332v24.74l-18.45-18.451c1.472-1.937,2.293-4.305,2.293-6.765v-15.956
	C458.388,426.292,465.528,418.855,474.545,418.336L474.545,418.336L474.545,418.336z M476.543,418.336
	c8.293,0.477,14.984,6.809,16.007,14.943l-16.007,16.005V418.336z M101.856,435.952l16.155,16.156v26.765
	c-0.018,0.109-0.018,0.222,0,0.332v15.381l-27.387-27.387c2.682-2.66,5.725-5.68,7.92-7.855c0.001,0,0.001,0,0.002,0
	c2.118-2.102,3.309-4.962,3.309-7.945C101.856,451.398,101.856,435.952,101.856,435.952z M492.699,435.954v15.444
	c0,2.983,1.193,5.844,3.31,7.945c2.195,2.176,5.241,5.196,7.922,7.855l-27.389,27.387v-15.385c0.018-0.107,0.018-0.216,0-0.323
	v-26.77L492.699,435.954z M139.794,459.655c2.45,2.429,5.792,5.748,8.582,8.514c3.013,2.988,4.707,7.054,4.707,11.3v0.984
	l-22.137,22.135h-10.937v-5.415c0.018-0.107,0.018-0.216,0-0.322v-17.413L139.794,459.655L139.794,459.655z M454.763,459.655
	l19.782,19.783v17.407c-0.018,0.11-0.018,0.222,0,0.332v5.411h-10.934l-22.137-22.136v-0.983c0-4.246,1.694-8.312,4.707-11.3
	C448.969,465.403,452.312,462.084,454.763,459.655L454.763,459.655L454.763,459.655z M89.228,468.627l28.783,28.783v5.178H84.94
	v-23.119C84.94,475.432,86.486,471.568,89.228,468.627L89.228,468.627z M505.329,468.627c2.742,2.94,4.288,6.805,4.288,10.842
	v23.119h-33.074v-5.178L505.329,468.627L505.329,468.627z M153.083,483.278v19.311H133.77L153.083,483.278z M441.474,483.278
	l19.313,19.311h-19.313V483.278z"></path>
</svg>