<?xml version="1.0" standalone="no"?>
<svg version="1.1" id="Layer_1" xmlns="http://www.w3.org/2000/svg" xmlns:xlink="http://www.w3.org/1999/xlink" x="0px" y="0px" width="595.28px" height="595.28px" viewBox="0 0 595.28 595.28" enable-background="new 0 0 595.28 595.28" xml:space="preserve">
<path id="color_x5F_7" fill="#F79438" d="M311.568,194.879c0,1.238-1.004,2.244-2.244,2.244c-1.239,0-2.243-1.006-2.243-2.244
	c0-0.27,0.055-0.523,0.142-0.764l-1.189-0.826c-0.564,0.807-1.308,1.479-2.176,1.954l0.914,1.718
	c0.192,0.014,0.384,0.059,0.56,0.166c0.594,0.361,0.782,1.137,0.421,1.73c-0.361,0.594-1.135,0.781-1.729,0.42
	s-0.782-1.135-0.421-1.729c0.041-0.067,0.103-0.109,0.153-0.166l-0.905-1.702c-0.649,0.222-1.342,0.347-2.065,0.347
	c-0.705,0-1.382-0.118-2.017-0.329l-0.91,2.039c0.147,0.193,0.25,0.423,0.25,0.685c0,0.635-0.515,1.148-1.149,1.148
	c-0.635,0-1.149-0.514-1.149-1.148c0-0.599,0.462-1.074,1.047-1.128l0.904-2.025c-0.818-0.439-1.525-1.055-2.082-1.79l-1.203,0.64
	c0.145,0.297,0.234,0.626,0.234,0.979c0,1.238-1.004,2.244-2.243,2.244c-1.239,0-2.244-1.006-2.244-2.244s1.004-2.244,2.244-2.244
	c0.479,0,0.921,0.153,1.286,0.41l1.34-0.713c-0.452-0.878-0.711-1.871-0.711-2.926c0-0.67,0.104-1.315,0.295-1.923l-1.154-0.803
	c-0.412,0.491-1.022,0.81-1.713,0.81c-1.239,0-2.243-1.004-2.243-2.242c0-1.24,1.004-2.244,2.243-2.244
	c1.239,0,2.244,1.004,2.244,2.244c0,0.15-0.016,0.297-0.044,0.438l1.099,0.766c0.981-1.88,2.866-3.213,5.08-3.417v-1.394
	c-0.835-0.326-1.428-1.134-1.428-2.084c0-1.238,1.005-2.244,2.244-2.244s2.244,1.006,2.244,2.244c0,1.143-0.859,2.075-1.965,2.214
	v1.259c1.448,0.111,2.758,0.705,3.776,1.62l1.62-1.119c0.014-0.194,0.058-0.388,0.166-0.565c0.361-0.594,1.135-0.781,1.729-0.42
	s0.782,1.135,0.421,1.729c-0.361,0.594-1.135,0.783-1.729,0.422c-0.06-0.037-0.097-0.093-0.148-0.137l-1.3,0.897
	c0.737,0.938,1.22,2.082,1.339,3.335h1.909c0.23-0.293,0.572-0.492,0.973-0.492c0.695,0,1.259,0.563,1.259,1.258
	s-0.563,1.258-1.259,1.258c-0.579,0-1.045-0.398-1.192-0.93h-1.684c-0.059,0.794-0.262,1.546-0.584,2.232l1.256,0.875
	c0.396-0.354,0.914-0.576,1.487-0.576C310.564,192.635,311.568,193.641,311.568,194.879z M125.9,265.404
	c-0.58,0.291-0.891,0.898-0.835,1.507l-0.868,0.435c-0.802-1.283-2.174-2.021-3.618-2.046l0.133-0.92
	c0.095-0.026,0.189-0.061,0.281-0.106c0.756-0.379,1.061-1.299,0.683-2.053c-0.378-0.756-1.297-1.063-2.053-0.684
	c-0.755,0.379-1.061,1.297-0.682,2.053c0.211,0.422,0.592,0.696,1.018,0.797l-0.14,0.969c-0.427,0.069-0.853,0.183-1.26,0.387
	c-0.644,0.322-1.156,0.793-1.553,1.336l-0.857-0.608c0.045-0.301,0.003-0.616-0.143-0.909c-0.378-0.754-1.297-1.061-2.052-0.682
	c-0.754,0.377-1.061,1.297-0.682,2.053c0.378,0.756,1.298,1.061,2.052,0.682c0.215-0.107,0.389-0.263,0.525-0.441l0.767,0.545
	c-0.277,0.563-0.427,1.178-0.445,1.809l-1.529,0.068c-0.211-0.34-0.644-0.478-1.009-0.295c-0.387,0.195-0.543,0.664-0.35,1.051
	c0.194,0.389,0.664,0.545,1.051,0.352c0.159-0.08,0.268-0.213,0.34-0.361l1.539-0.07c0.065,0.452,0.183,0.902,0.398,1.332
	c0.221,0.44,0.518,0.812,0.851,1.139l-0.77,1.084c-0.05-0.014-0.096-0.039-0.149-0.043c-0.472-0.037-0.886,0.313-0.924,0.785
	s0.312,0.887,0.785,0.926c0.471,0.039,0.886-0.313,0.925-0.785c0.012-0.141-0.02-0.271-0.069-0.393l0.779-1.098
	c0.555,0.384,1.182,0.645,1.846,0.742l-0.142,0.982c-0.172,0.02-0.345,0.064-0.509,0.146c-0.754,0.377-1.061,1.297-0.683,2.051
	c0.379,0.756,1.298,1.061,2.053,0.684c0.756-0.379,1.062-1.299,0.684-2.055c-0.175-0.349-0.468-0.596-0.805-0.729l0.15-1.04
	c0.515-0.014,1.03-0.127,1.53-0.332l0.521,1.04c-0.278,0.253-0.378,0.658-0.201,1.011c0.212,0.424,0.727,0.596,1.15,0.385
	c0.424-0.213,0.595-0.729,0.382-1.152c-0.123-0.245-0.349-0.393-0.598-0.443l-0.592-1.183c0.725-0.456,1.275-1.09,1.62-1.824
	l0.958,0.526c-0.012,0.045-0.035,0.085-0.039,0.133c-0.039,0.471,0.313,0.885,0.785,0.924c0.473,0.039,0.888-0.313,0.926-0.783
	c0.038-0.473-0.313-0.887-0.785-0.926c-0.141-0.012-0.272,0.021-0.395,0.071l-1.187-0.651c0.246-0.897,0.202-1.869-0.171-2.783
	l0.783-0.393c0.421,0.633,1.253,0.871,1.95,0.521c0.754-0.377,1.061-1.297,0.683-2.053
	C127.574,265.332,126.654,265.025,125.9,265.404z M486.564,283.389c-0.22,0.1-0.4,0.247-0.544,0.42l-0.744-0.576
	c0.301-0.551,0.477-1.158,0.521-1.789l1.531-0.004c0.196,0.35,0.623,0.504,0.995,0.336c0.395-0.178,0.571-0.641,0.393-1.035
	c-0.177-0.395-0.641-0.57-1.035-0.393c-0.163,0.072-0.277,0.2-0.356,0.346l-1.54,0.005c-0.046-0.454-0.145-0.908-0.342-1.347
	c-0.202-0.449-0.483-0.832-0.802-1.174l0.815-1.051c0.049,0.016,0.093,0.042,0.146,0.049c0.47,0.059,0.898-0.275,0.957-0.746
	c0.059-0.469-0.275-0.898-0.745-0.957c-0.47-0.059-0.899,0.275-0.958,0.746c-0.018,0.14,0.008,0.271,0.053,0.395l-0.825,1.064
	c-0.538-0.406-1.154-0.693-1.813-0.819l0.183-0.974c0.173-0.013,0.348-0.05,0.515-0.125c0.77-0.346,1.114-1.252,0.768-2.021
	c-0.346-0.771-1.252-1.115-2.022-0.77c-0.771,0.348-1.116,1.254-0.77,2.023c0.161,0.357,0.443,0.617,0.774,0.764l-0.193,1.033
	c-0.516-0.008-1.035,0.083-1.543,0.268l-0.478-1.063c0.289-0.24,0.405-0.641,0.244-1c-0.194-0.432-0.702-0.625-1.134-0.432
	c-0.432,0.195-0.625,0.703-0.43,1.135c0.112,0.25,0.332,0.406,0.578,0.468l0.542,1.206c-0.744,0.425-1.32,1.035-1.695,1.755
	l-0.935-0.564c0.013-0.045,0.038-0.084,0.044-0.132c0.058-0.471-0.275-0.898-0.746-0.957s-0.9,0.275-0.958,0.744
	c-0.057,0.471,0.276,0.9,0.746,0.959c0.142,0.018,0.274-0.01,0.399-0.056l1.157,0.7c-0.283,0.887-0.279,1.858,0.055,2.788
	l-0.799,0.359c-0.395-0.648-1.215-0.922-1.926-0.603c-0.77,0.346-1.114,1.252-0.768,2.021c0.347,0.771,1.252,1.115,2.022,0.768
	c0.591-0.266,0.927-0.86,0.897-1.47l0.886-0.398c0.747,1.317,2.087,2.11,3.529,2.194l-0.172,0.915
	c-0.096,0.022-0.192,0.053-0.285,0.095c-0.771,0.348-1.114,1.252-0.767,2.023c0.346,0.77,1.25,1.113,2.022,0.768
	c0.771-0.348,1.114-1.252,0.768-2.023c-0.193-0.43-0.563-0.72-0.983-0.838l0.181-0.964c0.43-0.052,0.859-0.146,1.274-0.333
	c0.656-0.295,1.188-0.743,1.606-1.27l0.832,0.645c-0.057,0.299-0.029,0.615,0.105,0.914c0.346,0.77,1.251,1.113,2.022,0.768
	c0.77-0.346,1.114-1.252,0.768-2.023C488.24,283.387,487.333,283.043,486.564,283.389z M386.942,199.816
	c-0.294,0-0.532,0.238-0.532,0.533v4.744c0,0.291,0.238,0.529,0.532,0.529c0.294,0,0.533-0.238,0.533-0.529v-4.744
	C387.475,200.055,387.237,199.816,386.942,199.816z M386.942,214.041c-0.294,0-0.532,0.236-0.532,0.531v4.742
	c0,0.295,0.238,0.533,0.532,0.533c0.294,0,0.533-0.238,0.533-0.533v-4.742C387.475,214.277,387.237,214.041,386.942,214.041z
	 M377.459,210.365h4.743c0.294,0,0.532-0.238,0.532-0.533s-0.238-0.531-0.532-0.531h-4.743c-0.293,0-0.532,0.236-0.532,0.531
	S377.166,210.365,377.459,210.365z M396.425,209.301h-4.742c-0.294,0-0.532,0.236-0.532,0.531s0.238,0.533,0.532,0.533h4.742
	c0.295,0,0.533-0.238,0.533-0.533S396.72,209.301,396.425,209.301z M380.613,202.75c-0.207-0.207-0.544-0.207-0.752,0
	c-0.208,0.209-0.208,0.545,0,0.752l3.354,3.355c0.208,0.207,0.545,0.207,0.752,0c0.208-0.209,0.208-0.545,0-0.754L380.613,202.75z
	 M393.271,216.914c0.208,0.207,0.545,0.207,0.752,0c0.208-0.209,0.208-0.545,0-0.754l-3.353-3.352c-0.208-0.209-0.545-0.209-0.752,0
	c-0.208,0.207-0.208,0.543,0,0.752L393.271,216.914z M383.215,212.809l-3.354,3.352c-0.208,0.209-0.208,0.545,0,0.754
	c0.208,0.207,0.545,0.207,0.752,0l3.354-3.354c0.208-0.209,0.208-0.545,0-0.752C383.76,212.6,383.422,212.6,383.215,212.809z
	 M390.671,206.857l3.353-3.355c0.208-0.207,0.208-0.543,0-0.752c-0.207-0.207-0.544-0.207-0.752,0l-3.353,3.354
	c-0.208,0.209-0.208,0.545,0,0.754C390.126,207.064,390.463,207.064,390.671,206.857z M212.859,199.816
	c-0.294,0-0.532,0.238-0.532,0.533v4.744c0,0.291,0.238,0.529,0.532,0.529c0.294,0,0.533-0.238,0.533-0.529v-4.744
	C213.392,200.055,213.154,199.816,212.859,199.816z M212.859,214.041c-0.294,0-0.532,0.236-0.532,0.531v4.742
	c0,0.295,0.238,0.533,0.532,0.533c0.294,0,0.533-0.238,0.533-0.533v-4.742C213.392,214.277,213.154,214.041,212.859,214.041z
	 M208.652,209.832c0-0.295-0.238-0.531-0.532-0.531h-4.743c-0.293,0-0.532,0.236-0.532,0.531s0.238,0.533,0.532,0.533h4.743
	C208.414,210.365,208.652,210.127,208.652,209.832z M217.068,209.832c0,0.295,0.238,0.533,0.532,0.533h4.742
	c0.295,0,0.533-0.238,0.533-0.533s-0.238-0.531-0.533-0.531H217.6C217.306,209.301,217.068,209.537,217.068,209.832z
	 M209.132,206.857c0.208,0.207,0.545,0.207,0.752,0c0.208-0.209,0.208-0.545,0-0.754l-3.354-3.354c-0.207-0.207-0.544-0.207-0.752,0
	c-0.208,0.209-0.208,0.545,0,0.752L209.132,206.857z M219.941,216.914c0.208-0.209,0.208-0.545,0-0.754l-3.353-3.352
	c-0.208-0.209-0.545-0.209-0.752,0c-0.208,0.207-0.208,0.543,0,0.752l3.353,3.354C219.397,217.121,219.734,217.121,219.941,216.914z
	 M209.132,212.809l-3.354,3.352c-0.208,0.209-0.208,0.545,0,0.754c0.208,0.207,0.545,0.207,0.752,0l3.354-3.354
	c0.208-0.209,0.208-0.545,0-0.752C209.677,212.6,209.339,212.6,209.132,212.809z M216.588,206.857l3.353-3.355
	c0.208-0.207,0.208-0.543,0-0.752c-0.207-0.207-0.544-0.207-0.752,0l-3.353,3.354c-0.208,0.209-0.208,0.545,0,0.754
	C216.043,207.064,216.38,207.064,216.588,206.857z M300.971,341.637c-0.294,0-0.532,0.238-0.532,0.531v4.744
	c0,0.293,0.238,0.531,0.532,0.531c0.294,0,0.533-0.238,0.533-0.531v-4.744C301.504,341.875,301.266,341.637,300.971,341.637z
	 M300.971,355.861c-0.294,0-0.532,0.236-0.532,0.531v4.742c0,0.293,0.238,0.531,0.532,0.531c0.294,0,0.533-0.238,0.533-0.531v-4.742
	C301.504,356.098,301.266,355.861,300.971,355.861z M296.764,351.65c0-0.293-0.238-0.531-0.532-0.531h-4.743
	c-0.293,0-0.532,0.238-0.532,0.531c0,0.297,0.238,0.535,0.532,0.535h4.743C296.525,352.186,296.764,351.947,296.764,351.65z
	 M310.454,351.119h-4.742c-0.294,0-0.532,0.238-0.532,0.531c0,0.297,0.238,0.535,0.532,0.535h4.742c0.295,0,0.533-0.238,0.533-0.535
	C310.987,351.357,310.749,351.119,310.454,351.119z M294.642,344.57c-0.207-0.209-0.544-0.209-0.752,0
	c-0.208,0.207-0.208,0.545,0,0.752l3.354,3.354c0.208,0.207,0.545,0.207,0.752,0s0.208-0.543,0-0.752L294.642,344.57z
	 M304.7,354.627c-0.208-0.209-0.545-0.209-0.752,0c-0.208,0.209-0.208,0.545,0,0.754l3.353,3.354c0.208,0.207,0.545,0.207,0.752,0
	c0.208-0.209,0.208-0.545,0-0.754L304.7,354.627z M297.244,354.627l-3.354,3.354c-0.208,0.209-0.208,0.545,0,0.754
	c0.208,0.207,0.545,0.207,0.752,0l3.354-3.354c0.208-0.209,0.208-0.545,0-0.754C297.789,354.418,297.451,354.418,297.244,354.627z
	 M304.7,348.676l3.353-3.354c0.208-0.207,0.208-0.545,0-0.752c-0.207-0.209-0.544-0.209-0.752,0l-3.353,3.354
	c-0.208,0.209-0.208,0.545,0,0.752C304.155,348.883,304.492,348.883,304.7,348.676z M384.943,341.637
	c-0.294,0-0.532,0.238-0.532,0.531v4.744c0,0.293,0.238,0.531,0.532,0.531c0.294,0,0.533-0.238,0.533-0.531v-4.744
	C385.476,341.875,385.237,341.637,384.943,341.637z M384.943,355.861c-0.294,0-0.532,0.236-0.532,0.531v4.742
	c0,0.293,0.238,0.531,0.532,0.531c0.294,0,0.533-0.238,0.533-0.531v-4.742C385.476,356.098,385.237,355.861,384.943,355.861z
	 M380.735,351.65c0-0.293-0.238-0.531-0.532-0.531h-4.743c-0.293,0-0.532,0.238-0.532,0.531c0,0.297,0.238,0.535,0.532,0.535h4.743
	C380.497,352.186,380.735,351.947,380.735,351.65z M394.426,351.119h-4.742c-0.294,0-0.532,0.238-0.532,0.531
	c0,0.297,0.238,0.535,0.532,0.535h4.742c0.295,0,0.533-0.238,0.533-0.535C394.958,351.357,394.721,351.119,394.426,351.119z
	 M378.614,344.57c-0.207-0.209-0.544-0.209-0.752,0c-0.208,0.207-0.208,0.545,0,0.752l3.354,3.354c0.208,0.207,0.545,0.207,0.752,0
	s0.208-0.543,0-0.752L378.614,344.57z M388.671,354.627c-0.208-0.209-0.545-0.209-0.752,0c-0.208,0.209-0.208,0.545,0,0.754
	l3.353,3.354c0.208,0.207,0.545,0.207,0.752,0c0.208-0.209,0.208-0.545,0-0.754L388.671,354.627z M381.215,354.627l-3.354,3.354
	c-0.208,0.209-0.208,0.545,0,0.754c0.208,0.207,0.545,0.207,0.752,0l3.354-3.354c0.208-0.209,0.208-0.545,0-0.754
	C381.76,354.418,381.423,354.418,381.215,354.627z M388.671,348.676l3.353-3.354c0.208-0.207,0.208-0.545,0-0.752
	c-0.207-0.209-0.544-0.209-0.752,0l-3.353,3.354c-0.208,0.209-0.208,0.545,0,0.752C388.126,348.883,388.464,348.883,388.671,348.676
	z M214.943,346.875c-0.294,0-0.532,0.238-0.532,0.531v4.744c0,0.293,0.238,0.531,0.532,0.531c0.294,0,0.533-0.238,0.533-0.531
	v-4.744C215.476,347.113,215.237,346.875,214.943,346.875z M214.943,361.1c-0.294,0-0.532,0.236-0.532,0.531v4.742
	c0,0.293,0.238,0.531,0.532,0.531c0.294,0,0.533-0.238,0.533-0.531v-4.742C215.476,361.336,215.237,361.1,214.943,361.1z
	 M210.735,356.889c0-0.293-0.238-0.531-0.532-0.531h-4.743c-0.293,0-0.532,0.238-0.532,0.531c0,0.297,0.238,0.535,0.532,0.535h4.743
	C210.497,357.424,210.735,357.186,210.735,356.889z M224.426,356.357h-4.742c-0.294,0-0.532,0.238-0.532,0.531
	c0,0.297,0.238,0.535,0.532,0.535h4.742c0.295,0,0.533-0.238,0.533-0.535C224.958,356.596,224.721,356.357,224.426,356.357z
	 M208.614,349.809c-0.207-0.209-0.544-0.209-0.752,0c-0.208,0.207-0.208,0.545,0,0.752l3.354,3.354c0.208,0.207,0.545,0.207,0.752,0
	s0.208-0.543,0-0.752L208.614,349.809z M218.671,359.865c-0.208-0.209-0.545-0.209-0.752,0c-0.208,0.209-0.208,0.545,0,0.754
	l3.353,3.354c0.208,0.207,0.545,0.207,0.752,0c0.208-0.209,0.208-0.545,0-0.754L218.671,359.865z M211.215,359.865l-3.354,3.354
	c-0.208,0.209-0.208,0.545,0,0.754c0.208,0.207,0.545,0.207,0.752,0l3.354-3.354c0.208-0.209,0.208-0.545,0-0.754
	C211.76,359.656,211.423,359.656,211.215,359.865z M221.272,349.809l-3.353,3.354c-0.208,0.209-0.208,0.545,0,0.752
	c0.208,0.207,0.545,0.207,0.752,0l3.353-3.354c0.208-0.207,0.208-0.545,0-0.752C221.817,349.6,221.48,349.6,221.272,349.809z"></path>
<path id="color_x5F_6" fill="#ED1C24" d="M189.568,410.646l11.873,6.827h-15.233h-0.818l0.356-1.412l1.269-5.027L189.568,410.646z
	 M157.118,410.957l-1.645,6.516h16.05l-11.209-6.447L157.118,410.957z M168.179,236.949c0.141,0.877,0.339,1.789,0.631,2.725
	c0.873,2.795,1.887,2.727,2.514,3.967c0,0-0.069-2.797,0.388-5.031l-1.366-0.642L168.179,236.949z M296.334,278.479
	c0.092,1.087-0.113,2.127-0.113,2.127s-7.739,14.957-9.706,16.723c-3.454,3.105-9.004,0.248-8.682-1.703
	c0,0-5.665-11.924-8.107-17.229l0.068,31.72l0.001,0.563h-32.927c0,0,0.022-0.295,0.062-0.83c0.06-0.813,0.162-2.188,0.287-3.914
	c-6.216-0.91-16.122-6.986-18.583-10.221c-0.191-0.252-0.248-0.6-0.21-0.992c-0.063-0.086-0.132-0.165-0.169-0.279
	c-0.493-1.492,0.132-4.172,1.365-7.271c2.439-7.137,13.121-26.37,14.902-28.58c1.27-2.24,3.359-3.707,5.73-3.707l6.58-0.215
	l7.629,6.107l2.055-6.035l8.133-0.072l0.014,0.143c2.517-0.592,6.67,0.846,8.903,4.305c0.949,1.471,6.113,13.795,9.092,21.967
	c0.56,1.017,1.093,2.04,1.586,3.052c2.766-3.567,5.935-6.728,8.479-7.747C293.494,277.719,294.884,278.468,296.334,278.479z
	 M230.234,292.834c3.298,2.242,6.892,5.055,6.892,5.055s0.247,0.252,0.616,0.658c0.675-9.695,1.456-21.77,1.201-22.389
	C238.57,277.128,232.664,288.142,230.234,292.834z M245.567,304.441c0-2.33-1.89-4.221-4.221-4.221c-0.29,0-0.572,0.029-0.845,0.085
	c-0.351,0.071-0.678,0.199-0.991,0.353c-0.936,0.455-1.68,1.234-2.072,2.203c-0.198,0.489-0.312,1.021-0.312,1.58
	c0,0.342,0.051,0.669,0.128,0.986c0.044,0.184,0.099,0.361,0.166,0.533c0.132,0.341,0.305,0.658,0.516,0.949
	c0.767,1.059,2.004,1.754,3.411,1.754C243.677,308.664,245.567,306.773,245.567,304.441z M188.228,229.284
	c0.081-0.059,0.166-0.109,0.243-0.173c4-3.25,3.5-7.5,3.5-7.5s-8.25,1.5-13,1.25s-8.5,0.25-8.75,2.75
	c-0.024,0.246-0.061,0.518-0.103,0.801c-0.584,0.559-1.125,1.319-1.611,2.355c0,0-0.896,2.987-0.482,7.029l2.32,0.96l1.679,0.694
	c0.234-0.664,0.542-1.193,0.958-1.426c0.713-0.4,1.416,1.311,1.826,2.578l0.527,0.219c0.047-0.375,0.087-0.791,0.087-1.146
	c0-0.898,0.047-2.395,2.104-4.576c0.753-0.801,0.875-1.955,0.732-3.096C180.515,230.608,185.232,231.474,188.228,229.284z
	 M384.305,278.527c-9.333-11.334-11.74-11.5-10.333-16c3.333-10.666-3.666-22-10.333-26c-4.038-2.422-5.623-4.717-6.251-6.154
	c-0.071-1.725-0.249-2.846-0.249-2.846c-1.5-3.201-3.524-3.808-5.753-3.747l-9.08-0.585l-0.445,0.235
	c-7.425-0.891-9.669,5.845-9.998,13.757l-0.224,0.674c0,0,0.666,5.332-2.667,8c-3.333,2.666-7,6-5,11
	c0.68,1.699,1.28,3.162,1.78,4.36c0.43-1.046,0.771-1.808,0.962-2.104c1.566-2.426,4.07-3.835,6.298-4.27
	c0.949-0.186,1.853-0.212,2.605-0.035l0.014-0.143l8.133,0.072v-5.725h-2.28c-5.294,0-5.909-4.172-5.909-9.326v-0.164h0.056
	c0-0.001,0-0.001,0-0.002v-4.359c0.458-0.853,1.494-2.457,3.674-4.639c0.347-0.347,0.649-0.649,0.928-0.928
	c2.398-2.396,2.406-2.404,2.406-2.404l2.201,2.201l2.031,2.031c0.086,0.627,0.303,1.209,0.737,1.672
	c2.056,2.182,2.104,3.678,2.104,4.576c0,0.398,0.05,0.873,0.105,1.281l0.455-0.188c0.4-1.276,1.134-3.161,1.879-2.743
	c0.442,0.248,0.765,0.824,1.003,1.55l1.633-0.676l2.349-0.973l0.366-0.151c0,0.367-0.022,0.729-0.064,1.086l-0.489,0.229
	l-2.162,1.016l-1.34,0.63c0.428,2.211,0.36,4.904,0.36,4.904c-0.106,0.21-0.24,0.404-0.361,0.605v10.424l6.58,0.215
	c2.371,0,4.461,1.467,5.73,3.707c0.625,0.775,1.905,2.648,3.396,5.031c2.845,4.548,6.471,10.984,7.87,15.418l-0.337,0.111
	c3.457,5.959,6.234,12.581,5.339,15.291c-0.038,0.114-0.107,0.193-0.169,0.279c0.037,0.393-0.02,0.74-0.21,0.992
	c-2.488,3.27-12.585,9.443-18.786,10.246c-0.814,0.105-1.558,0.116-2.212,0.018c0.313,0.639,0.62,1.225,0.909,1.746
	c0.286,0.515,0.549,0.958,0.789,1.348c5.286,0.719,11.457,0.873,15.626-1.211C386.638,303.527,393.638,289.861,384.305,278.527z
	 M363.153,297.889c0,0,5.738-4.49,9.366-6.644c-0.653-1.083-3.123-5.19-5.317-8.962l-1.182,0.391
	c-0.481-1.211-4.228-5.326-4.685-6.516c-0.183,0.445-4.576,10.402-4.113,17.531c0.152,2.353,0.604,4.57,1.197,6.583
	c0.273,0.929,0.578,1.808,0.897,2.64c0.371-0.738,0.897-1.524,1.453-2.254C361.92,299.145,363.153,297.889,363.153,297.889z"></path>
<path id="color_x5F_5" fill="#FFD2BB" d="M456.625,320.969c-2.404,4.893-7.352,1.707-7.401,1.637
	c-0.25-0.352-2.622-2.826-0.624-5.451c-0.004-0.047-0.005-0.088-0.011-0.133c-0.052-0.014-0.096-0.027-0.128-0.033
	c-0.013-0.004,0.022-0.238,0.085-0.602c1.792-0.246,3.891-0.666,5.761-1.323c0.009,0.013,0.021,0.03,0.021,0.03
	c0.047,0.023,0.094,0.047,0.144,0.074c0.334,0.182,0.675,0.451,1.015,0.787C456.481,316.928,457.294,319.609,456.625,320.969z
	 M391.541,294.542c0.406-1.504,0.829-3.063,1.261-4.653C392.35,291.263,391.923,292.842,391.541,294.542z M394.737,318.771
	c0.052-0.014,0.096-0.027,0.128-0.033c0.031-0.01-0.207-1.289-0.461-2.697c0.169-0.283,0.336-0.594,0.502-0.912
	c-2.274-0.747-3.708-1.552-4.911-2.583c0.09,0.825,0.215,1.592,0.381,2.278c-0.649,0.951-1.374,2.018-1.379,2.02
	c-0.047,0.023-0.094,0.047-0.144,0.074c-0.334,0.182-0.675,0.451-1.015,0.787c-0.993,0.973-1.806,3.654-1.137,5.014
	c2.404,4.893,7.352,1.707,7.401,1.637c0.25-0.352,2.622-2.826,0.624-5.451C394.73,318.857,394.731,318.816,394.737,318.771z
	 M205.711,277.986c0.001,0.001,0.001,0.003,0.002,0.004l0,0C205.713,277.99,205.711,277.986,205.711,277.986z M197.499,283.26
	c2.112,3.618,4.385,7.398,5.008,8.431c-2.873,1.704-7.046,4.857-8.671,6.106c-0.428,0.329-0.695,0.537-0.695,0.537
	s-0.293,0.361-0.615,0.897c-0.465-0.177-0.963-0.284-1.49-0.284c-2.044,0-3.746,1.451-4.136,3.379
	c-0.055,0.272-0.084,0.554-0.084,0.842c0,2.33,1.889,4.221,4.221,4.221c1.014,0,1.932-0.373,2.66-0.969
	c0.222-0.182,0.423-0.384,0.604-0.606c0.451-0.556,0.766-1.22,0.888-1.957c5.381,0.272,13.844-4.278,16.445-7.696
	c0.191-0.252,0.248-0.601,0.21-0.994c0.063-0.086,0.132-0.165,0.169-0.279c0.977-2.957-2.419-10.568-6.298-16.896
	C205.768,277.944,200.759,281.163,197.499,283.26z M178.673,248.764c-0.125-0.016-0.246-0.038-0.369-0.059
	c-0.293-0.049-0.582-0.109-0.866-0.184c-0.123-0.033-0.246-0.063-0.367-0.099c-0.359-0.109-0.71-0.233-1.05-0.382
	c-0.018-0.008-0.033-0.02-0.051-0.027v-7.402l-1.825-0.857l-2.435-1.145c-0.457,2.234-0.388,5.031-0.388,5.031
	c0.106,0.21,0.24,0.404,0.361,0.604v10.425c0,0,0.536,3.691,5.536,3.691c2.548,0,3.594-0.851,4.002-1.727l0.146-0.473v-1.42v-5.891
	h-1.447C179.497,248.852,179.083,248.816,178.673,248.764z M176.638,239.361l-1.303-0.539c0.047-0.375,0.087-0.791,0.087-1.146
	c0-0.898,0.047-2.395,2.104-4.576c0.753-0.801,0.875-1.955,0.732-3.096c2.258,0.604,6.975,1.47,9.971-0.72
	c0.806,1.365,1.273,2.945,1.273,4.634v5.443H176.638z M186.215,236.785c0.056,0.523,0.359,0.922,0.694,0.887
	c0.328-0.035,0.556-0.488,0.504-1.014c-0.051-0.523-0.361-0.92-0.693-0.887C186.391,235.807,186.162,236.26,186.215,236.785z
	 M179.322,236.785c0.055,0.523,0.36,0.922,0.693,0.887c0.328-0.035,0.556-0.488,0.505-1.014c-0.052-0.523-0.361-0.92-0.693-0.887
	C179.498,235.807,179.268,236.26,179.322,236.785z M172.982,236.025c-0.416,0.232-0.724,0.762-0.958,1.426l2.784,1.152
	C174.397,237.336,173.695,235.625,172.982,236.025z M166.201,300.221c-0.29,0-0.572,0.029-0.845,0.085
	c-0.351,0.071-0.678,0.199-0.991,0.353c-0.642-0.844-1.303-1.602-1.768-2.111c-0.37-0.406-0.616-0.658-0.616-0.658
	s-5.738-4.49-9.366-6.644c0.653-1.083,3.123-5.19,5.317-8.962l-9.484-3.131c-3.456,5.958-6.234,12.581-5.338,15.291
	c0.038,0.114,0.107,0.193,0.169,0.279c-0.037,0.393,0.02,0.74,0.21,0.992c2.461,3.234,12.368,9.311,18.583,10.221
	c0.068,0.01,0.135,0.018,0.202,0.025c0.132,0.341,0.305,0.658,0.516,0.949c0.767,1.059,2.004,1.754,3.411,1.754
	c2.331,0,4.221-1.891,4.221-4.223C170.421,302.111,168.532,300.221,166.201,300.221z M331.438,306.42
	c0.141-0.506,0.269-0.953,0.384-1.344c0.112-0.541,0.226-1.111,0.337-1.703c0.227-1.195,0.446-2.48,0.637-3.813
	c0.019-0.135,0.039-0.27,0.057-0.405c-0.082,0.025-0.166,0.046-0.246,0.076c-0.322-0.536-0.615-0.897-0.615-0.897
	s-5.737-4.49-9.365-6.643c0.622-1.032,2.895-4.813,5.007-8.432c-3.261-2.098-8.27-5.316-8.215-5.27
	c0.001,0.001,0.006-0.012,0.009-0.016c-3.883,6.331-7.285,13.953-6.307,16.912c0.038,0.114,0.107,0.193,0.169,0.28
	c-0.038,0.393,0.02,0.741,0.21,0.993c2.602,3.418,11.064,7.969,16.445,7.696C330.117,304.889,330.662,305.784,331.438,306.42z
	 M264.502,232.348c0.089,0.512,0.146,1.034,0.146,1.57v5.443h-12.677l-1.481-0.613c0.043-0.355,0.077-0.741,0.077-1.072
	c0-0.898,0.048-2.395,2.104-4.576c0.489-0.52,0.708-1.19,0.766-1.908c0.012,0,0.022,0.004,0.035,0.004
	c1.035,0,1.898-0.728,2.113-1.697c0.396,0.521,1.016,0.863,1.721,0.863c0.711,0,1.336-0.348,1.731-0.877
	c0.354,0.715,1.083,1.211,1.935,1.211c0.589,0,1.122-0.236,1.512-0.618c-0.002,0.04-0.012,0.077-0.012,0.118
	C262.471,231.344,263.37,232.276,264.502,232.348z M255.666,236.658c-0.051-0.523-0.361-0.92-0.693-0.887
	c-0.329,0.035-0.559,0.488-0.505,1.014c0.055,0.523,0.36,0.922,0.693,0.887C255.489,237.637,255.716,237.184,255.666,236.658z
	 M262.559,236.658c-0.05-0.523-0.36-0.92-0.693-0.887c-0.329,0.035-0.558,0.488-0.505,1.014c0.055,0.523,0.359,0.922,0.694,0.887
	C262.382,237.637,262.611,237.184,262.559,236.658z M255.791,226.647c-0.003-0.006-0.006-0.013-0.01-0.019
	c0.001,0.009,0.002,0.017,0.002,0.025C255.786,226.651,255.788,226.65,255.791,226.647z M259.34,227.116
	c-0.042-0.038-0.081-0.076-0.119-0.118c-0.024,0.026-0.044,0.054-0.07,0.078c0.032,0.053,0.061,0.107,0.088,0.162
	C259.271,227.196,259.306,227.156,259.34,227.116z M248.127,236.025c-0.401,0.225-0.702,0.727-0.933,1.358l2.731,1.131
	C249.512,237.258,248.824,235.635,248.127,236.025z M254.505,248.813c-0.117-0.01-0.235-0.012-0.35-0.025
	c-1.005-0.111-1.964-0.373-2.85-0.766v-7.41l-1.825-0.857l-2.606-1.225c-0.082,0.387-0.149,0.789-0.201,1.195
	c-0.205,1.594-0.211,3.182-0.206,3.715c0.001,0.12,0.003,0.201,0.003,0.201c0.106,0.211,0.24,0.404,0.361,0.605v10.424l7.629,6.107
	l2.055-6.035v-5.891h-1.26C255.001,248.852,254.753,248.831,254.505,248.813z M294.395,270.543
	c-2.063,1.086-2.854,3.639-1.769,5.701c0.028,0.053,0.066,0.094,0.096,0.145c0.771,1.33,2.161,2.079,3.611,2.09
	c0.673,0.006,1.356-0.131,1.994-0.467c2.063-1.086,2.854-3.639,1.769-5.701C299.009,270.248,296.458,269.455,294.395,270.543z
	 M241.346,300.221c-0.29,0-0.572,0.029-0.845,0.085c-0.351,0.071-0.678,0.199-0.991,0.353c-0.936,0.455-1.68,1.234-2.072,2.203
	c-0.198,0.489-0.312,1.021-0.312,1.58c0,0.342,0.051,0.669,0.128,0.986c0.044,0.184,0.099,0.361,0.166,0.533
	c0.132,0.341,0.305,0.658,0.516,0.949c0.767,1.059,2.004,1.754,3.411,1.754c2.331,0,4.221-1.891,4.221-4.223
	C245.567,302.111,243.677,300.221,241.346,300.221z M367.202,282.283c2.194,3.771,4.664,7.879,5.317,8.962
	c-3.628,2.153-9.366,6.644-9.366,6.644s-1.232,1.256-2.384,2.77c-0.556,0.729-1.082,1.516-1.453,2.254
	c-0.597,1.191-0.772,2.252,0.117,2.705c0.353,0.18,0.765,0.293,1.214,0.361c0.654,0.099,1.398,0.088,2.212-0.018
	c6.201-0.803,16.297-6.977,18.786-10.246c0.191-0.252,0.248-0.6,0.21-0.992c0.063-0.086,0.132-0.165,0.169-0.279
	c0.896-2.71-1.882-9.332-5.339-15.291L367.202,282.283z M332.794,412.238c0.006,0.074,0.01,0.123,0.01,0.123h5.5
	c0,0,0.025-0.115,0.068-0.315c0.571-2.656,4.674-21.967,5.277-31.692c0.28-4.534,0.408-23.996,1.125-37.826h-17.043
	C328.818,363.706,332.583,409.668,332.794,412.238z M368.51,374.547c-0.428-4.712-1.246-18.565-1.735-32.02H348.39
	c4.939,22.727,14.321,65.995,15.038,69.299c0.028,0.133,0.043,0.201,0.043,0.201h4.813h0.02
	C367.741,409.793,370.139,392.457,368.51,374.547z M353.447,244.246c0.122-0.201,0.255-0.396,0.361-0.605
	c0,0,0.067-2.693-0.36-4.904l-2.166,1.018l-2.178,1.023v7.266v0.145c-1.204,0.533-2.542,0.83-3.95,0.83h-1.391v5.725l2.055,6.035
	l7.629-6.107V244.246z M352.151,236.025c-0.745-0.418-1.479,1.467-1.879,2.743l2.883-1.193
	C352.916,236.85,352.593,236.273,352.151,236.025z M348.438,239.527H335.63c0-0.001,0-0.001,0-0.002v-4.359
	c0.458-0.853,1.494-2.457,3.674-4.639c0.347-0.347,0.649-0.649,0.928-0.928c2.398-2.396,2.406-2.404,2.406-2.404l2.201,2.201
	l2.031,2.031c0.086,0.627,0.303,1.209,0.737,1.672c2.056,2.182,2.104,3.678,2.104,4.576c0,0.398,0.05,0.873,0.105,1.281
	L348.438,239.527z M338.917,236.785c0.053-0.525-0.176-0.979-0.505-1.014c-0.333-0.033-0.644,0.363-0.693,0.887
	c-0.052,0.525,0.176,0.979,0.504,1.014C338.558,237.707,338.862,237.309,338.917,236.785z M345.811,236.785
	c0.054-0.525-0.176-0.979-0.505-1.014c-0.332-0.033-0.643,0.363-0.693,0.887c-0.051,0.525,0.177,0.979,0.505,1.014
	C345.451,237.707,345.756,237.309,345.811,236.785z M410.574,239.527v0.164c0,1.559,0.059,3.024,0.284,4.315
	c-0.25-1.33-0.312-2.856-0.312-4.481v-5.607c0-0.8,0.115-1.572,0.309-2.313c1.443-0.85,3.126-1.348,4.938-1.348
	c1.086,0,2.136,0.18,3.105,0.506c0.12,0.033,0.244,0.082,0.358,0.123c3.324,1.253,5.743,4.261,6.072,7.857l-1.891,0.783H410.574z
	 M419.528,236.658c-0.051,0.525,0.178,0.979,0.506,1.014c0.332,0.035,0.639-0.363,0.692-0.887c0.054-0.525-0.176-0.979-0.504-1.014
	C419.889,235.738,419.58,236.135,419.528,236.658z M412.635,236.658c-0.053,0.525,0.176,0.979,0.504,1.014
	c0.334,0.035,0.639-0.363,0.693-0.887c0.054-0.525-0.176-0.979-0.505-1.014C412.996,235.738,412.685,236.135,412.635,236.658z
	 M410.856,231.604c0.213-0.813,0.536-1.584,0.95-2.296C411.389,230.02,411.069,230.791,410.856,231.604z M427.151,245.854
	c-0.287,0.301-0.6,0.577-0.923,0.84C426.553,246.432,426.863,246.153,427.151,245.854z M426.228,246.693
	c-0.043,0.035-0.086,0.068-0.129,0.102C426.142,246.762,426.185,246.729,426.228,246.693z M425.371,245.191v-5.009l-1.266,0.595
	v7.233c0.721-0.321,1.384-0.737,1.994-1.216c-0.329,0.256-0.67,0.495-1.032,0.707C425.26,246.764,425.371,245.99,425.371,245.191z"></path>
<path id="color_x5F_4" fill="#00CEC9" d="M338.373,412.046l1.369,5.427h-16.051l9.104-5.234c0.006,0.074,0.01,0.123,0.01,0.123h5.5
	C338.305,412.361,338.33,412.246,338.373,412.046z M363.471,412.027c0,0-0.015-0.068-0.043-0.201l-9.818,5.646h16.05l-1.375-5.445
	H363.471z M369.153,263.623c-1.491-2.383-2.771-4.256-3.396-5.031c-1.27-2.24-3.359-3.707-5.73-3.707l-6.58-0.215l-7.629,6.107
	l-2.055-6.035l-8.133-0.072l-0.014,0.143c-0.752-0.177-1.656-0.15-2.605,0.035c-2.228,0.435-4.732,1.844-6.298,4.27
	c-0.191,0.297-0.532,1.059-0.962,2.104c-2.044,4.97-6.147,16.502-6.323,16.753c-0.002,0.004-0.008,0.017-0.009,0.016
	c-0.055-0.047,4.954,3.172,8.215,5.27c1.568,1.01,2.734,1.76,2.734,1.76c0.436,0.623,1.178-8.83,3.061-1.275
	c0.203,0.814,0.301,7.57,0,7.781c0.009,2.492-0.23,5.132-0.576,7.63c-0.019,0.136-0.038,0.271-0.057,0.405
	c-0.191,1.332-0.411,2.617-0.637,3.813c-0.112,0.592-0.225,1.162-0.337,1.703c-0.103,0.495-0.205,0.965-0.304,1.41
	c-0.564,2.537-1.035,4.193-1.035,4.193h31.242h1.685c0,0-0.434-0.584-1.064-1.607c-0.239-0.39-0.502-0.833-0.789-1.348
	c-0.29-0.521-0.597-1.107-0.909-1.746c-0.45-0.068-0.861-0.182-1.214-0.361c-0.889-0.453-0.714-1.514-0.117-2.705
	c-0.319-0.832-0.624-1.711-0.897-2.64c-0.592-2.013-1.044-4.23-1.197-6.583c-0.463-7.129,3.931-17.086,4.113-17.531
	c0.457,1.189,4.203,5.305,4.685,6.516l1.182-0.391l9.484-3.131l0.337-0.111C375.625,274.607,371.999,268.171,369.153,263.623z"></path>
<path id="color_x5F_3" fill="#E84393" d="M413.091,411.262l1.567,6.211h-5.585h-10.465l11.467-6.594h2.921L413.091,411.262z
	 M442.911,410.879h-2.921l-11.464,6.594h16.05L442.911,410.879z M197.691,334.459c0.044-9.619-1.683-18.742-3.105-24.604
	c0.04,0.525,0.064,0.824,0.064,0.824h-32.927c0,0,0.022-0.296,0.062-0.832c-1.649,5.058-3.021,10.596-3.032,15.064
	c-0.036,16.135-1.503,42.723-2.131,49.635c-1.287,14.146-0.859,16.108-1.885,26.188c-0.272,2.681-0.647,5.93-1.185,10.144
	l3.565,0.078l3.196,0.068l5.007,0.109c0,0,0.251-1.517,0.686-4.125c2.483-14.898,10.99-65.695,13.308-76.299
	c1.688,9.623,1.787,43.471,2.168,49.643c0.648,10.457,1.492,31.293,1.492,31.293l4.04-0.613l2.554-0.388l8.124-1.233
	C197.692,409.412,197.63,347.953,197.691,334.459z M272.837,409.412c0,0-0.061-61.459,0-74.953
	c0.043-9.48-1.633-18.475-3.043-24.343l0.001,0.563h-32.927c0,0,0.022-0.295,0.062-0.83c-1.649,5.056-3.02,10.594-3.03,15.063
	c-0.037,16.135-1.504,42.723-2.132,49.635c-1.629,17.91-0.509,16.277-3.07,36.332l3.566,0.078l-1.645,6.516h16.05l-11.208-6.447
	l5.006,0.109c0,0,11.271-67.965,13.994-80.424c1.688,9.623,1.787,43.471,2.168,49.643c0.648,10.457,1.492,31.293,1.492,31.293
	l4.041-0.613l-1.625,6.439h16.05l-11.872-6.827L272.837,409.412z M246.874,238.529l-1.383-0.65l-0.601-0.282
	c-0.2-0.142-0.425-0.245-0.667-0.313l-0.914-0.43c0.019,0.122,0.039,0.244,0.06,0.367c-1.068,0.134-1.897,1.035-1.897,2.141
	c0,1.082,0.798,1.973,1.836,2.133c0,0.012-0.003,0.021-0.003,0.033c0,1.195,0.97,2.166,2.167,2.166c0.327,0,0.634-0.078,0.912-0.208
	c0.029,0.051,0.059,0.101,0.087,0.155c0,0-0.001-0.081-0.003-0.201c-0.005-0.533,0-2.121,0.206-3.715
	C246.725,239.318,246.792,238.916,246.874,238.529z M240.555,230.361c0-0.719,0.354-1.352,0.893-1.746
	c-0.088-0.235-0.143-0.488-0.143-0.754c0-1.197,0.97-2.168,2.167-2.168c0.366,0,0.706,0.1,1.008,0.26
	c0.041-1.161,0.988-2.092,2.159-2.092c0.586,0,1.116,0.235,1.506,0.613c0.03-1.171,0.983-2.111,2.161-2.111
	c0.852,0,1.581,0.495,1.935,1.21c0.269-0.892,1.086-1.544,2.065-1.544c0.597,0,1.138,0.242,1.53,0.633
	c0.388-0.583,1.05-0.967,1.803-0.967c1.117,0,2.026,0.848,2.143,1.935c0.306-0.166,0.651-0.269,1.023-0.269
	c1.068,0,1.951,0.775,2.129,1.793c0.222-0.076,0.457-0.127,0.705-0.127c1.196,0,2.167,0.971,2.167,2.168
	c0,0.375-0.104,0.723-0.272,1.03c0.749,0.341,1.272,1.093,1.272,1.97c0,1.195-0.97,2.166-2.167,2.166
	c-0.046,0-0.09-0.011-0.136-0.014c-1.132-0.071-2.031-1.004-2.031-2.152c0-0.041,0.01-0.078,0.012-0.118
	c-0.39,0.382-0.923,0.618-1.512,0.618c-0.852,0-1.581-0.496-1.935-1.211c-0.395,0.529-1.021,0.877-1.731,0.877
	c-0.705,0-1.325-0.342-1.721-0.863c-0.215,0.97-1.078,1.697-2.113,1.697c-0.012,0-0.023-0.004-0.035-0.004
	c-0.059,0.718-0.277,1.389-0.766,1.908c-2.056,2.182-2.104,3.678-2.104,4.576c0,0.331-0.034,0.717-0.077,1.072l-0.564-0.233
	c-0.414-1.257-1.102-2.88-1.798-2.489c-0.401,0.225-0.702,0.727-0.933,1.358l-1.704-0.705l-1.874-0.775
	c-0.129,0.024-0.26,0.04-0.396,0.04c-0.011,0-0.022-0.003-0.034-0.004c-0.089-0.001-0.176-0.014-0.263-0.025
	c-1.055-0.146-1.87-1.041-1.87-2.137c0-0.596,0.241-1.135,0.629-1.525C241.014,231.883,240.555,231.18,240.555,230.361z
	 M259.34,227.116c-0.042-0.038-0.081-0.076-0.119-0.118c-0.024,0.026-0.044,0.054-0.07,0.078c0.032,0.053,0.061,0.107,0.088,0.162
	C259.271,227.196,259.306,227.156,259.34,227.116z M255.791,226.647c-0.003-0.006-0.006-0.013-0.01-0.019
	c0.001,0.009,0.002,0.017,0.002,0.025C255.786,226.651,255.788,226.65,255.791,226.647z M436.381,281.72l-10.867,17.27l-7.356,11.69
	l-1.687,2.682l-1.195-2.682l-3.614-8.107l-5.209-11.686l-1.446-3.244l-7.035-15.781c0,0,0.051-0.465,0.148-1.224
	c0.392-3.042,1.553-10.896,3.352-13.276c1.592-2.107,9.2-5.191,9.2-5.191l2.552-3.957c0.817,0.514,1.875,0.805,3.26,0.805h3.671
	c1.409,0,2.746-0.297,3.95-0.83v-0.177c0.721-0.321,1.384-0.737,1.994-1.216c-0.329,0.256-0.67,0.495-1.032,0.707
	c0.194-0.738,0.305-1.512,0.305-2.311v-5.009l1.262-0.593l3.071-1.443v1.379c0,0.129-0.017,0.254-0.023,0.382l1.291,11.454
	c0,0,5.508,1.967,8,3.5c6.391,3.934,5.532,13.66,5.501,13.984c0,0.006-0.001,0.016-0.001,0.016l-7.149,11.362L436.381,281.72z
	 M426.228,246.693c0.324-0.263,0.637-0.539,0.923-0.84C426.863,246.153,426.553,246.432,426.228,246.693z M418.899,230.764
	c0.12,0.033,0.244,0.082,0.358,0.123c3.324,1.253,5.743,4.261,6.072,7.857l4.375-1.811v-3.016c0-3.965-2.534-7.348-6.113-8.697
	c-0.114-0.041-0.238-0.09-0.358-0.123c-0.97-0.326-2.02-0.506-3.105-0.506c-2.648,0-5.036,1.045-6.773,2.732
	c-0.271,0.264-0.52,0.547-0.756,0.841c-0.056,0.069-0.109,0.142-0.163,0.212c-0.206,0.272-0.4,0.553-0.576,0.848
	c-0.017,0.027-0.036,0.055-0.052,0.084c-0.414,0.712-0.736,1.482-0.95,2.296c0,0,0,0.001,0,0.001
	c1.443-0.85,3.126-1.348,4.938-1.348C416.879,230.258,417.929,230.438,418.899,230.764z"></path>
<path id="color_x5F_2" fill="#FBC02D" d="M445.73,404.595c0.211,1.838,0.461,3.904,0.766,6.284h-3.584h-2.921h-5.263h-17.654h-3.487
	h-0.591h-2.921h-7.718c0,0,0.062-62.926,0.001-76.42c-0.044-9.617,1.683-18.738,3.104-24.6c0.208-2.729,0.862-11.781,0.991-18.973
	l5.209,11.686l3.614,8.107l1.195,2.682l1.687-2.682l7.356-11.69l10.867-17.27c0.447,8.562,1.602,24.344,1.882,28.128
	c1.649,5.058,3.021,10.596,3.032,15.064c0.037,16.135,1.503,42.723,2.131,49.635C444.862,390.332,444.163,390.945,445.73,404.595z
	 M397.971,271.861c0,0,0.051-0.465,0.148-1.224c-1.61,5.694-3.542,12.723-5.317,19.251c-0.432,1.59-0.855,3.149-1.261,4.653
	c-2.312,8.554-4.096,15.288-4.07,15.319c0.884,1.062,1.646,1.933,2.524,2.685c1.203,1.031,2.636,1.836,4.911,2.583
	c0.757,0.248,1.597,0.49,2.565,0.732c0.542,0.135,5.209-20.887,7.535-28.219L397.971,271.861z M444.473,268.846
	c0,0.006-0.001,0.016-0.001,0.016l-7.149,11.362c2.555,10.089,8.758,35.403,9.149,36.388c0.609-0.047,1.315-0.12,2.076-0.225
	c1.792-0.246,3.891-0.666,5.761-1.323c1.573-0.554,2.985-1.274,3.913-2.202C456.689,308.001,449.22,283.213,444.473,268.846z
	 M180.015,237.672c0.328-0.035,0.556-0.488,0.505-1.014c-0.052-0.523-0.361-0.92-0.693-0.887c-0.329,0.035-0.559,0.488-0.505,1.014
	C179.376,237.309,179.682,237.707,180.015,237.672z M186.91,237.672c0.328-0.035,0.556-0.488,0.504-1.014
	c-0.051-0.523-0.361-0.92-0.693-0.887c-0.329,0.035-0.559,0.488-0.505,1.014C186.271,237.309,186.575,237.707,186.91,237.672z
	 M198.419,259.117c-2.233-3.459-6.387-4.896-8.904-4.305l-0.014-0.143l-8.133,0.072c0,0,0.288,0.961-0.146,1.893
	c-0.408,0.876-1.454,1.727-4.002,1.727c-5,0-5.536-3.691-5.536-3.691l-6.579,0.215c-2.371,0-4.462,1.467-5.731,3.707
	c-1.817,2.256-9.134,13.693-11.265,20.449l0.336,0.111l9.484,3.131l1.182,0.391c0.48-1.211,4.228-5.326,4.684-6.516
	c0.255,0.619-0.525,12.692-1.2,22.389c0.465,0.51,1.126,1.268,1.768,2.111c0.313-0.153,0.64-0.281,0.991-0.353
	c0.273-0.056,0.556-0.085,0.845-0.085c2.331,0,4.221,1.891,4.221,4.221c0,2.332-1.89,4.223-4.221,4.223
	c-1.407,0-2.644-0.695-3.411-1.754c-0.211-0.291-0.384-0.608-0.516-0.949c-0.067-0.008-0.134-0.016-0.202-0.025
	c-0.125,1.725-0.227,3.102-0.286,3.912c-0.04,0.536-0.062,0.832-0.062,0.832h32.927c0,0-0.024-0.299-0.064-0.824
	c-0.063-0.836-0.168-2.257-0.288-4.042c-0.181,0.223-0.382,0.425-0.604,0.606c-0.728,0.596-1.646,0.969-2.66,0.969
	c-2.332,0-4.221-1.891-4.221-4.221c0-0.288,0.03-0.569,0.084-0.842c0.39-1.928,2.092-3.379,4.136-3.379
	c0.527,0,1.025,0.107,1.49,0.284c0.322-0.536,0.615-0.897,0.615-0.897s0.267-0.208,0.695-0.537
	c-0.158-3.311-0.272-6.744-0.261-9.615c-0.301-0.211,0.191-0.66,0.168-1.5c-0.275-9.615,0.587-1.039,1.022-1.662
	c0,0,1.166-0.75,2.734-1.76c3.261-2.097,8.27-5.316,8.215-5.27c0,0-0.002-0.004-0.002-0.004
	C205.596,277.962,199.528,260.837,198.419,259.117z M254.972,235.771c-0.329,0.035-0.559,0.488-0.505,1.014
	c0.055,0.523,0.36,0.922,0.693,0.887c0.328-0.035,0.556-0.488,0.505-1.014C255.615,236.135,255.304,235.738,254.972,235.771z
	 M261.866,235.771c-0.329,0.035-0.558,0.488-0.505,1.014c0.055,0.523,0.359,0.922,0.694,0.887c0.327-0.035,0.556-0.488,0.504-1.014
	C262.509,236.135,262.199,235.738,261.866,235.771z M366.616,337.736c-0.02-0.67-0.04-1.335-0.057-1.996
	c-0.003-0.104-0.006-0.21-0.009-0.314c-0.019-0.7-0.037-1.395-0.053-2.081c0-0.022-0.001-0.045-0.001-0.067
	c-0.017-0.709-0.031-1.408-0.044-2.099c-0.002-0.125-0.004-0.246-0.007-0.37c-0.01-0.529-0.019-1.053-0.026-1.568
	c-0.003-0.205-0.006-0.409-0.008-0.612c-0.006-0.455-0.011-0.903-0.016-1.347c-0.002-0.19-0.004-0.382-0.005-0.57
	c-0.005-0.611-0.009-1.214-0.01-1.799c-0.011-4.857-2.185-9.979-4.653-14.232h-31.242c0,0,0.471-1.656,1.035-4.193
	c0.099-0.445,0.201-0.915,0.304-1.41c-0.115,0.391-0.243,0.838-0.384,1.344c-1.445,5.205-4.051,16.249-3.997,28.039
	c0.008,1.852,0.1,4.643,0.251,8.068h0.04h17.043c0.032-0.61,0.064-1.209,0.099-1.795c0.001-0.024,0.003-0.049,0.004-0.073
	c0.032-0.553,0.066-1.093,0.1-1.622c0.004-0.055,0.007-0.11,0.011-0.165c0.033-0.491,0.066-0.97,0.101-1.437
	c0.006-0.082,0.012-0.165,0.018-0.246c0.032-0.423,0.065-0.832,0.099-1.233c0.009-0.112,0.019-0.229,0.028-0.341
	c0.031-0.361,0.064-0.708,0.097-1.049c0.013-0.129,0.024-0.263,0.037-0.388c0.031-0.308,0.063-0.597,0.095-0.884
	c0.016-0.141,0.031-0.287,0.047-0.422c0.033-0.277,0.067-0.532,0.102-0.788c0.016-0.12,0.032-0.251,0.048-0.367
	c0.051-0.358,0.104-0.696,0.158-1.007c0.503,2.299,1.411,6.5,2.557,11.816h0.015h18.385h0c-0.056-1.548-0.108-3.09-0.155-4.611
	C366.619,337.855,366.618,337.796,366.616,337.736z M345.118,237.672c0.333,0.035,0.639-0.363,0.693-0.887
	c0.054-0.525-0.176-0.979-0.505-1.014c-0.332-0.033-0.643,0.363-0.693,0.887C344.562,237.184,344.79,237.637,345.118,237.672z
	 M338.223,237.672c0.335,0.035,0.639-0.363,0.694-0.887c0.053-0.525-0.176-0.979-0.505-1.014c-0.333-0.033-0.644,0.363-0.693,0.887
	C337.667,237.184,337.895,237.637,338.223,237.672z M420.034,237.672c0.332,0.035,0.639-0.363,0.692-0.887
	c0.054-0.525-0.176-0.979-0.504-1.014c-0.333-0.033-0.643,0.363-0.694,0.887C419.477,237.184,419.706,237.637,420.034,237.672z
	 M413.139,237.672c0.334,0.035,0.639-0.363,0.693-0.887c0.054-0.525-0.176-0.979-0.505-1.014c-0.332-0.033-0.643,0.363-0.692,0.887
	C412.583,237.184,412.811,237.637,413.139,237.672z"></path>
<path id="color_x5F_1" fill="#0984E3" d="M186.208,417.473c0.023,0.093,0.055,0.182,0.076,0.275h-70.282
	c0.14-4.223,3.882-7.611,8.484-7.611c0.255,0,0.505,0.016,0.753,0.035c-0.479-1.219-0.753-2.527-0.753-3.898
	c0-2.434,0.83-4.686,2.233-6.539c-0.828-1.004-1.709-1.968-2.552-2.945c-0.652-0.758-1.392-1.586-1.964-2.488
	c-4.649-3.83-9.123-7.857-13.461-12.027c0.202-0.096,0.357-0.311,0.269-0.582c-0.939-2.936-2.218-5.764-2.859-8.789
	c-0.125-0.588-1.062-0.494-0.934,0.096c0.622,2.936,1.804,5.689,2.746,8.525c-5.486-5.324-10.752-10.877-15.831-16.596
	c-0.397-0.449-1.164,0.094-0.763,0.549c6.012,6.77,12.28,13.322,18.875,19.523c-1.482-0.307-2.949-0.645-4.319-1.322
	c-0.543-0.27-0.92,0.592-0.379,0.861c1.851,0.918,3.875,1.234,5.873,1.666c0.046,0.01,0.082,0,0.123-0.002
	c3.147,2.918,6.362,5.764,9.671,8.504c-4.449,0.752-12.316,0.781-17.833-6.443c-8.087-10.594-5.594-9.93-12.571-15.662
	c-6.977-5.732-13.44-11.473-9.733-16.049c3.709-4.574,12.49,0.75,17.414,7.771c4.923,7.02,11.952,7.338,18.756,12.438
	c10.375,7.773,7.375,17.088,7.375,17.088s-0.229,0.086-0.638,0.213c0.81,1.139,1.906,2.176,2.709,3.094
	c0.38,0.438,0.756,0.881,1.128,1.326c0.347-0.343,0.709-0.672,1.099-0.973c-1.705-8.021-5.53-15.381-8.192-23.146
	c-3.025-1.213-8.236-4.539-9.999-13.367c-1.663-8.336,1.078-14.818-3.13-22.287c-4.211-7.469-5.229-17.693,0.498-19.063
	c5.728-1.371,8.119,6.936,10.282,15.703c2.164,8.766,2.638,6.23,8.708,18.1c4.139,8.094,0.717,15.176-1.877,18.865
	c-1.043-4.166-2.226-8.295-3.5-12.393c0.019-0.037,0.042-0.066,0.052-0.111c0.475-1.986,1.061-3.953,1.032-6.014
	c-0.009-0.605-0.949-0.639-0.941-0.031c0.024,1.527-0.307,2.998-0.669,4.467c-2.752-8.625-5.959-17.107-9.475-25.449
	c-0.235-0.557-1.056-0.102-0.824,0.451c2.969,7.047,5.71,14.195,8.145,21.441c-2.152-2.076-4.126-4.33-6.505-6.156
	c-0.481-0.371-0.968,0.436-0.492,0.801c2.453,1.885,4.455,4.258,6.697,6.371c0.208,0.197,0.468,0.152,0.639,0.01
	c1.922,5.797,3.652,11.656,5.116,17.592c-0.871,1.111-1.518,1.729-1.518,1.729s-0.102-0.016-0.276-0.051
	c2.573,7.213,6.042,14.097,7.732,21.553c1.639-0.924,3.524-1.505,5.549-1.637c0.038-0.719,0.08-1.438,0.144-2.156
	c-0.252-0.227-0.595-0.551-0.998-0.973c0.762-5.184,1.757-10.328,2.919-15.434c0.157,0.107,0.384,0.123,0.545-0.059
	c1.74-1.988,3.254-4.18,5.192-5.988c0.376-0.352-0.107-1-0.485-0.643c-1.882,1.756-3.38,3.84-5.044,5.787
	c1.481-6.385,3.232-12.709,5.187-18.967c0.154-0.492-0.584-0.813-0.738-0.32c-2.316,7.41-4.356,14.914-5.995,22.5
	c-0.429-1.223-0.832-2.449-0.938-3.756c-0.044-0.518-0.843-0.414-0.802,0.104c0.145,1.758,0.809,3.393,1.374,5.045
	c0.015,0.039,0.037,0.064,0.055,0.094c-0.75,3.602-1.417,7.221-1.968,10.863c-2.518-2.936-6.02-8.699-3.152-15.947
	c4.204-10.629,4.818-8.502,5.942-16.162c1.125-7.658,2.483-14.943,7.484-14.246c4.999,0.701,4.973,9.51,1.992,16.229
	c-2.979,6.719-0.104,12.023-0.84,19.277c-0.851,8.385-5.752,11.512-8.072,12.533c-0.068,0.736-0.111,1.475-0.15,2.212
	c6.104,0.351,11.006,4.788,11.532,10.396c1.048-2.176,3.084-3.851,5.58-4.54c-0.272,2.681-0.647,5.93-1.185,10.144l3.565,0.078
	l-1.645,6.516h16.05l-11.209-6.447l5.007,0.109c0,0,0.251-1.517,0.686-4.125c0.111,0.52,0.172,1.055,0.172,1.604
	c0,0.662-0.093,1.303-0.253,1.92c1.653-1.111,3.596-1.873,5.707-2.168c0.631-0.086,1.274-0.139,1.933-0.139
	c0.217,0,0.432,0.006,0.646,0.016c5.307,0.24,9.767,3.424,11.535,7.818l-0.356,1.412H186.208z M514.203,356.553
	c-3.709-4.574-12.49,0.75-17.414,7.771c-4.923,7.02-11.952,7.338-18.756,12.438c-10.375,7.773-7.375,17.088-7.375,17.088
	s0.229,0.086,0.638,0.213c-0.81,1.139-1.906,2.176-2.709,3.094c-0.38,0.438-0.756,0.881-1.128,1.326
	c-0.347-0.343-0.709-0.672-1.099-0.973c1.705-8.021,5.53-15.381,8.192-23.146c3.025-1.213,8.236-4.539,9.999-13.367
	c1.663-8.336-1.078-14.818,3.13-22.287c4.211-7.469,5.229-17.693-0.498-19.063c-5.728-1.371-8.119,6.936-10.282,15.703
	c-2.164,8.766-2.638,6.23-8.708,18.1c-4.139,8.094-0.717,15.176,1.877,18.865c1.043-4.166,2.226-8.295,3.5-12.393
	c-0.019-0.037-0.042-0.066-0.052-0.111c-0.475-1.986-1.061-3.953-1.032-6.014c0.009-0.605,0.949-0.639,0.941-0.031
	c-0.024,1.527,0.307,2.998,0.669,4.467c2.752-8.625,5.959-17.107,9.475-25.449c0.235-0.557,1.056-0.102,0.824,0.451
	c-2.969,7.047-5.71,14.195-8.145,21.441c2.152-2.076,4.126-4.33,6.505-6.156c0.481-0.371,0.968,0.436,0.492,0.801
	c-2.453,1.885-4.455,4.258-6.697,6.371c-0.208,0.197-0.468,0.152-0.639,0.01c-1.922,5.797-3.652,11.656-5.116,17.592
	c0.871,1.111,1.518,1.729,1.518,1.729s0.102-0.016,0.276-0.051c-2.573,7.213-6.042,14.097-7.732,21.553
	c-1.639-0.924-3.524-1.505-5.549-1.637c-0.038-0.719-0.08-1.438-0.144-2.156c0.252-0.227,0.595-0.551,0.998-0.973
	c-0.762-5.184-1.757-10.328-2.919-15.434c-0.157,0.107-0.384,0.123-0.545-0.059c-1.74-1.988-3.254-4.18-5.192-5.988
	c-0.376-0.352,0.107-1,0.485-0.643c1.882,1.756,3.38,3.84,5.044,5.787c-1.481-6.385-3.232-12.709-5.187-18.967
	c-0.154-0.492,0.584-0.813,0.738-0.32c2.316,7.41,4.356,14.914,5.995,22.5c0.429-1.223,0.832-2.449,0.938-3.756
	c0.044-0.518,0.843-0.414,0.802,0.104c-0.145,1.758-0.809,3.393-1.374,5.045c-0.015,0.039-0.037,0.064-0.055,0.094
	c0.75,3.602,1.417,7.221,1.968,10.863c2.518-2.936,6.02-8.699,3.152-15.947c-4.204-10.629-4.818-8.502-5.942-16.162
	c-1.125-7.658-2.483-14.943-7.484-14.246c-4.999,0.701-4.973,9.51-1.992,16.229c2.979,6.719,0.104,12.023,0.84,19.277
	c0.851,8.385,5.752,11.512,8.072,12.533c0.068,0.736,0.111,1.475,0.15,2.212c-6.104,0.351-11.006,4.788-11.532,10.396
	c-0.114-0.236-0.257-0.457-0.393-0.681c0.211,1.838,0.461,3.904,0.766,6.284h-3.584l1.665,6.594h-16.05l11.464-6.594h-5.263h-17.654
	h-3.487c-0.168,0.125-0.334,0.25-0.495,0.383l1.567,6.211h-5.585c-0.023,0.093-0.055,0.182-0.076,0.275h70.282
	c-0.14-4.223-3.882-7.611-8.484-7.611c-0.255,0-0.505,0.016-0.753,0.035c0.479-1.219,0.753-2.527,0.753-3.898
	c0-2.434-0.83-4.686-2.233-6.539c0.828-1.004,1.709-1.968,2.552-2.945c0.652-0.758,1.392-1.586,1.964-2.488
	c4.649-3.83,9.123-7.857,13.461-12.027c-0.202-0.096-0.357-0.311-0.269-0.582c0.939-2.936,2.218-5.764,2.859-8.789
	c0.125-0.588,1.062-0.494,0.934,0.096c-0.622,2.936-1.804,5.689-2.746,8.525c5.486-5.324,10.752-10.877,15.831-16.596
	c0.397-0.449,1.164,0.094,0.763,0.549c-6.012,6.77-12.28,13.322-18.875,19.523c1.482-0.307,2.949-0.645,4.319-1.322
	c0.543-0.27,0.92,0.592,0.379,0.861c-1.851,0.918-3.875,1.234-5.873,1.666c-0.046,0.01-0.082,0-0.123-0.002
	c-3.147,2.918-6.362,5.764-9.671,8.504c4.449,0.752,12.316,0.781,17.833-6.443c8.087-10.594,5.594-9.93,12.571-15.662
	C511.446,366.869,517.91,361.129,514.203,356.553z M175.334,238.822l-0.527-0.219l-2.784-1.152l-1.679-0.694l-2.32-0.96
	l-0.452-0.188c0,0.367,0.022,0.729,0.064,1.086l0.541,0.254l2.167,1.019l1.366,0.642l2.435,1.145l1.825,0.857v7.41
	c0.017,0.008,0.034,0.012,0.051,0.02c0.339,0.147,0.691,0.272,1.05,0.382c0.121,0.036,0.244,0.065,0.367,0.099
	c0.284,0.073,0.572,0.135,0.866,0.184c0.123,0.021,0.245,0.043,0.369,0.059c0.409,0.053,0.824,0.088,1.249,0.088h1.447h2.224
	c5.294,0,5.909-4.172,5.909-9.326v-0.164h-12.864L175.334,238.822z M251.971,239.361l-1.481-0.613l-0.564-0.233l-2.731-1.131
	l-1.704-0.705l-1.874-0.775c-0.129,0.024-0.26,0.04-0.396,0.04c-0.011,0-0.022-0.003-0.034-0.004
	c-0.089-0.001-0.176-0.014-0.263-0.025c0.009,0.262,0.016,0.523,0.046,0.781l0.338,0.158l0.914,0.43
	c0.242,0.068,0.467,0.172,0.667,0.313l0.601,0.282l1.383,0.65l2.606,1.225l1.825,0.857v7.41c0.886,0.393,1.845,0.654,2.85,0.766
	c0.116,0.012,0.233,0.019,0.35,0.025c0.249,0.019,0.497,0.039,0.75,0.039h1.26h2.223h0.188c5.294,0,5.909-4.172,5.909-9.326v-0.164
	h-0.187H251.971z M354.788,236.899l-1.633,0.676l-2.883,1.193l-0.455,0.188l-1.378,0.57H335.63h-0.056v0.164
	c0,5.154,0.615,9.326,5.909,9.326h2.28h1.391c1.409,0,2.746-0.297,3.95-0.83v-0.145v-7.266l2.178-1.023l2.166-1.018l1.34-0.63
	l2.162-1.016l0.489-0.229c0.042-0.357,0.064-0.719,0.064-1.086l-0.366,0.151L354.788,236.899z M413.224,248.213
	c0.817,0.514,1.875,0.805,3.26,0.805h3.671c1.409,0,2.746-0.297,3.95-0.83v-0.177v-7.233l1.266-0.595l1.262-0.593l3.071-1.443
	l2.734-1.285c0.042-0.357,0.064-0.719,0.064-1.086l-2.799,1.158l-4.375,1.811l-1.891,0.783h-12.864v0.164
	c0,1.559,0.059,3.024,0.284,4.315C411.183,245.868,411.861,247.356,413.224,248.213z"></path>
</svg>