<svg width="416" height="434" viewBox="0 0 416 434" fill="none" xmlns="http://www.w3.org/2000/svg">
<circle cx="182.518" cy="135.931" r="93.6425" fill="#0E6994"/>
<rect x="0.0675752" y="5.69462" width="51.5198" height="95.9683" transform="matrix(0.7107 0.703495 -0.693807 0.720161 352.139 28.6152)" stroke="#323232" stroke-width="8"/>
<rect x="0.0675752" y="5.69462" width="125.92" height="16.8079" rx="6" transform="matrix(0.7107 0.703495 -0.693807 0.720161 324.794 1.54604)" stroke="#323232" stroke-width="8"/>
<rect x="0.0675752" y="5.69462" width="103.775" height="266.713" rx="11" transform="matrix(0.7107 0.703495 -0.693807 0.720161 274.407 71.303)" stroke="#323232" stroke-width="8"/>
<rect x="0.0675752" y="5.69462" width="103.775" height="185.475" rx="6" transform="matrix(0.7107 0.703495 -0.693807 0.720161 218.043 129.807)" stroke="#323232" stroke-width="8"/>
<path d="M109.407 276.01L147.785 313.999L119.632 343.221C117.333 345.608 113.56 345.652 111.205 343.321L81.3554 313.775C79.0004 311.443 78.955 307.619 81.2541 305.233L109.407 276.01Z" stroke="#323232" stroke-width="8"/>
<path d="M92.4658 333.592L3.97311 429.344" stroke="#323232" stroke-width="8" stroke-linecap="round"/>
<line x1="4" y1="-4" x2="59.1904" y2="-4" transform="matrix(-0.740733 -0.6718 0.661767 -0.749709 262.14 224.579)" stroke="#323232" stroke-width="8" stroke-linecap="round"/>
<line x1="4" y1="-4" x2="38.0936" y2="-4" transform="matrix(-0.702302 -0.711879 0.702302 -0.711879 230.114 259.539)" stroke="#323232" stroke-width="8" stroke-linecap="round"/>
<line x1="4" y1="-4" x2="59.1904" y2="-4" transform="matrix(-0.740733 -0.6718 0.661767 -0.749709 200.552 296.996)" stroke="#323232" stroke-width="8" stroke-linecap="round"/>
</svg>
